<svg width="24" height="25" viewBox="0 0 24 25" fill="none" xmlns="http://www.w3.org/2000/svg">
<path d="M6.87998 23.035H7.68096C7.8833 23.035 8.04732 22.8709 8.04732 22.6686C8.04732 22.4663 7.8833 22.3022 7.68096 22.3022H6.87998C6.67764 22.3022 6.51363 22.4663 6.51363 22.6686C6.51363 22.8709 6.67764 23.035 6.87998 23.035Z" fill="#4BD099"/>
<path d="M22.8094 10.5986H21.1554C20.9883 9.97168 20.7394 9.37227 20.4128 8.81011L21.5814 7.64375C21.7144 7.51104 21.7875 7.33447 21.7875 7.14663C21.7875 6.95874 21.7143 6.78218 21.5813 6.64951L19.8821 4.95352C19.6085 4.68042 19.1633 4.68032 18.8897 4.95352L17.7195 6.12148C17.156 5.79521 16.555 5.54658 15.9267 5.37974V3.73027C15.9267 3.34297 15.6115 3.02788 15.2242 3.02788H14.2017V1.80127C14.2017 0.808057 13.3936 0 12.4004 0H2.16064C1.16743 0 0.359375 0.808057 0.359375 1.80127V4.20503C0.359375 4.40737 0.523389 4.57139 0.725732 4.57139C0.928076 4.57139 1.09209 4.40737 1.09209 4.20503V1.80127C1.09209 1.21206 1.57148 0.732715 2.16064 0.732715H12.4004C12.9896 0.732715 13.4689 1.21206 13.4689 1.80127V20.3378H1.09209V5.8897C1.09209 5.68735 0.928076 5.52334 0.725732 5.52334C0.523389 5.52334 0.359375 5.68735 0.359375 5.8897V23.1987C0.359375 24.1919 1.16743 25 2.16064 25H12.4004C13.3936 25 14.2017 24.1919 14.2017 23.1987V21.9722H15.2242C15.6115 21.9722 15.9267 21.6571 15.9267 21.2698V19.6203C16.5551 19.4535 17.156 19.2048 17.7195 18.8786L18.8897 20.0465C19.1633 20.3196 19.6085 20.3196 19.8821 20.0465L21.5814 18.3505C21.7144 18.2178 21.7875 18.0413 21.7875 17.8534C21.7875 17.6655 21.7143 17.489 21.5813 17.3563L20.4128 16.1899C20.7394 15.6278 20.9883 15.0284 21.1554 14.4015H22.8094C23.1967 14.4015 23.5118 14.0864 23.5118 13.6991V11.3012C23.5118 10.9138 23.1967 10.5986 22.8094 10.5986V10.5986ZM13.4689 23.1987C13.4689 23.7879 12.9896 24.2673 12.4004 24.2673H2.16064C1.57144 24.2673 1.09209 23.7879 1.09209 23.1987V21.0705H13.4689V23.1987ZM22.779 13.6687H20.8681C20.6966 13.6687 20.5481 13.7876 20.5106 13.9549C20.3437 14.6991 20.0512 15.4038 19.641 16.0492C19.5488 16.1941 19.5697 16.3836 19.6914 16.505L21.0422 17.8533L19.3859 19.5065L18.034 18.1572C17.9129 18.0362 17.7241 18.0154 17.5792 18.107C16.9324 18.5166 16.2263 18.8087 15.4806 18.9751C15.3131 19.0125 15.194 19.1611 15.194 19.3327V21.2394H14.2017V17.0523C15.2188 17.0124 16.1975 16.6336 16.9749 15.9748C17.1292 15.844 17.1483 15.6128 17.0175 15.4584C16.8867 15.3041 16.6555 15.285 16.5012 15.4158C15.856 15.9626 15.0455 16.2797 14.2017 16.3192V8.68091C16.2314 8.77471 17.854 10.4516 17.854 12.5C17.854 13.1076 17.7155 13.6882 17.4424 14.2259C17.3508 14.4063 17.4228 14.6268 17.6032 14.7184C17.7837 14.8101 18.0041 14.738 18.0958 14.5577C18.4215 13.9162 18.5867 13.2239 18.5867 12.5C18.5867 10.0476 16.6356 8.04185 14.2017 7.94746V3.76055H15.1939V5.66724C15.1939 5.83882 15.313 5.9874 15.4805 6.0248C16.2263 6.19131 16.9324 6.4834 17.5792 6.89297C17.724 6.98462 17.9128 6.96372 18.034 6.84272L19.3859 5.49346L21.0422 7.14663L19.6913 8.49497C19.5697 8.61631 19.5488 8.80581 19.6409 8.95078C20.0512 9.59624 20.3437 10.3009 20.5105 11.0451C20.548 11.2125 20.6966 11.3313 20.868 11.3313H22.779V13.6687H22.779Z" fill="#4BD099"/>
<path d="M2.37749 5.45142H4.60606C4.87442 5.45142 5.09278 5.23306 5.09278 4.9647V2.73618C5.09278 2.46782 4.87447 2.24951 4.60606 2.24951H2.37749C2.10918 2.24951 1.89082 2.46787 1.89082 2.73618V4.96475C1.89082 5.23311 2.10913 5.45142 2.37749 5.45142V5.45142ZM2.62354 2.98218H4.36001V4.7187H2.62354V2.98218Z" fill="#4BD099"/>
<path d="M6.16621 5.45142H8.39477C8.66318 5.45142 8.88149 5.23306 8.88149 4.9647V2.73618C8.88149 2.46782 8.66318 2.24951 8.39477 2.24951H6.16621C5.8978 2.24951 5.67949 2.46787 5.67949 2.73618V4.96475C5.67949 5.23311 5.89785 5.45142 6.16621 5.45142V5.45142ZM6.4122 2.98218H8.14873V4.7187H6.4122V2.98218Z" fill="#4BD099"/>
<path d="M9.95498 5.45142H12.1835C12.452 5.45142 12.6703 5.23306 12.6703 4.9647V2.73618C12.6703 2.46782 12.452 2.24951 12.1835 2.24951H9.95498C9.68662 2.24951 9.46826 2.46787 9.46826 2.73618V4.96475C9.46821 5.23311 9.68657 5.45142 9.95498 5.45142V5.45142ZM10.201 2.98218H11.9375V4.7187H10.201V2.98218Z" fill="#4BD099"/>
<path d="M1.89082 9.10684C1.89082 9.3752 2.10918 9.59355 2.37749 9.59355H4.60606C4.87442 9.59355 5.09278 9.3752 5.09278 9.10684V6.87832C5.09278 6.60996 4.87447 6.3916 4.60606 6.3916H2.37749C2.10918 6.3916 1.89082 6.60996 1.89082 6.87832V9.10684ZM2.62354 7.12432H4.36001V8.86084H2.62354V7.12432Z" fill="#4BD099"/>
<path d="M5.67949 9.10684C5.67949 9.3752 5.8978 9.59355 6.16621 9.59355H8.39477C8.66318 9.59355 8.88149 9.3752 8.88149 9.10684V6.87832C8.88149 6.60996 8.66318 6.3916 8.39477 6.3916H6.16621C5.8978 6.3916 5.67949 6.60996 5.67949 6.87832V9.10684ZM6.4122 7.12432H8.14873V8.86084H6.4122V7.12432Z" fill="#4BD099"/>
<path d="M9.46821 9.10684C9.46821 9.3752 9.68657 9.59355 9.95493 9.59355H12.1835C12.4519 9.59355 12.6702 9.3752 12.6702 9.10684V6.87832C12.6702 6.60996 12.4519 6.3916 12.1835 6.3916H9.95493C9.68657 6.3916 9.46821 6.60996 9.46821 6.87832V9.10684ZM10.201 7.12432H11.9375V8.86084H10.201V7.12432Z" fill="#4BD099"/>
</svg>
