<?xml version="1.0" encoding="UTF-8"?>
<svg xmlns="http://www.w3.org/2000/svg" width="28" height="25" viewBox="0 0 28 25" fill="none">
  <g clip-path="url(#clip0_420_805)">
    <path d="M1.91412 1.63574C1.69561 1.63574 1.51855 1.8128 1.51855 2.03131C1.51855 2.24982 1.69561 2.42688 1.91412 2.42688H2.42467C2.64319 2.42688 2.82024 2.24982 2.82024 2.03131C2.82024 1.8128 2.64319 1.63574 2.42467 1.63574H1.91412Z" fill="#6471d7"></path>
    <path d="M4.1026 1.63574C3.88409 1.63574 3.70703 1.8128 3.70703 2.03131C3.70703 2.24982 3.88409 2.42688 4.1026 2.42688H4.61315C4.83166 2.42688 5.00872 2.24982 5.00872 2.03131C5.00872 1.8128 4.83166 1.63574 4.61315 1.63574H4.1026Z" fill="#6471d7"></path>
    <path d="M6.2901 1.63574C6.07159 1.63574 5.89453 1.8128 5.89453 2.03131C5.89453 2.24982 6.07159 2.42688 6.2901 2.42688H6.8006C7.01911 2.42688 7.19617 2.24982 7.19617 2.03131C7.19617 1.8128 7.01911 1.63574 6.8006 1.63574H6.2901Z" fill="#6471d7"></path>
    <path d="M18.0207 11.7517C18.2356 11.7904 18.4415 11.6477 18.4802 11.4327L19.0256 8.41129L19.9194 11.4411C19.9208 11.4459 19.9223 11.4506 19.9239 11.4554C19.9917 11.6571 20.1798 11.7921 20.3924 11.7921H20.3951C20.6088 11.791 20.7966 11.6536 20.8626 11.4504C20.8641 11.4458 20.8655 11.4413 20.8667 11.4367L21.7299 8.40881L22.3086 11.4367C22.3495 11.6513 22.557 11.7922 22.7713 11.751C22.9859 11.71 23.1266 11.5028 23.0856 11.2882L22.2713 7.02712C22.2265 6.80728 22.0388 6.64494 21.8148 6.63228C21.5898 6.61841 21.386 6.75982 21.3168 6.97316C21.3154 6.9777 21.3139 6.98223 21.3126 6.98687L20.3876 10.232L19.4289 6.98265C19.4276 6.97791 19.426 6.97316 19.4244 6.96847C19.353 6.75581 19.1466 6.61778 18.9228 6.63286C18.699 6.64784 18.513 6.81219 18.4697 7.03708L17.7017 11.2923C17.6629 11.5071 17.8057 11.7129 18.0207 11.7517Z" fill="#6471d7"></path>
    <path d="M12.9015 10.4767C12.7341 10.3363 12.4846 10.358 12.3442 10.5253C12.3013 10.5764 12.2551 10.6242 12.2068 10.6672C11.9582 10.8886 11.6433 11.0008 11.2708 11.0008C10.2842 11.0008 9.48157 10.1982 9.48157 9.21161C9.48157 8.225 10.2842 7.42236 11.2708 7.42236C11.6294 7.42236 11.9752 7.52796 12.2709 7.72769C12.452 7.8499 12.6979 7.80238 12.8201 7.62131C12.9424 7.44024 12.8948 7.19436 12.7137 7.0721C12.2867 6.78365 11.7877 6.63123 11.2708 6.63123C9.84797 6.63123 8.69043 7.78877 8.69043 9.21161C8.69043 10.6344 9.84797 11.7919 11.2708 11.7919C11.8351 11.7919 12.3407 11.6073 12.733 11.2579C12.8098 11.1895 12.8829 11.1141 12.9502 11.034C13.0906 10.8667 13.0688 10.6171 12.9015 10.4767Z" fill="#6471d7"></path>
    <path d="M16.1877 11.6578C16.3322 11.822 16.5822 11.8375 16.746 11.6934C16.9099 11.5491 16.9259 11.2991 16.7816 11.1351L15.5003 9.67929C16.2784 9.57797 16.8802 8.93662 16.8802 8.16252C16.8802 7.31822 16.1645 6.63135 15.2848 6.63135H14.1236C14.1233 6.63135 14.1231 6.6314 14.1229 6.6314C14.1226 6.6314 14.1224 6.63135 14.1221 6.63135C13.9036 6.63135 13.7266 6.8084 13.7266 7.02692V11.3965C13.7266 11.615 13.9036 11.7921 14.1221 11.7921C14.3406 11.7921 14.5177 11.615 14.5177 11.3965V9.76041L16.1877 11.6578ZM15.2848 7.42243C15.7208 7.42243 16.0891 7.76136 16.0891 8.16247C16.0891 8.56357 15.7208 8.90245 15.2848 8.90245C15.1099 8.90245 14.7856 8.90392 14.525 8.90529C14.5236 8.64844 14.5221 8.33098 14.5221 8.16247C14.5221 8.01953 14.5212 7.6901 14.5204 7.42243H15.2848Z" fill="#6471d7"></path>
    <path d="M26.663 17.8157L26.1759 17.5229C26.1503 17.5075 26.1289 17.4856 26.1139 17.4598L25.2589 15.9789V1.30041C25.2589 0.604106 24.6924 0.0375977 23.9961 0.0375977H17.8786C17.66 0.0375977 17.483 0.214655 17.483 0.433167C17.483 0.65168 17.66 0.828737 17.8786 0.828737H23.9961C24.2563 0.828737 24.4678 1.04034 24.4678 1.30041V3.23385H0.919069V1.30041C0.919069 1.04029 1.13067 0.828737 1.39075 0.828737H16.2969C16.5154 0.828737 16.6925 0.65168 16.6925 0.433167C16.6925 0.214655 16.5154 0.0375977 16.2969 0.0375977H1.39075C0.694438 0.0375449 0.12793 0.604106 0.12793 1.30041V17.0071C0.12793 17.2256 0.304987 17.4026 0.523499 17.4026C0.742012 17.4026 0.919069 17.2256 0.919069 17.0071V4.02499H6.52408V20.7275H1.39075C1.13062 20.7275 0.919069 20.5159 0.919069 20.2558V18.5887C0.919069 18.3702 0.742012 18.1931 0.523499 18.1931C0.304987 18.1931 0.12793 18.3702 0.12793 18.5887V20.2558C0.12793 20.9521 0.694438 21.5186 1.39075 21.5186H16.1113L16.8545 22.8057C16.8693 22.8315 16.8775 22.861 16.878 22.8909L16.888 23.4591C16.894 23.7967 17.0794 24.1113 17.3717 24.2801L18.3299 24.8333C18.6223 25.0021 18.9874 25.0053 19.2827 24.8417L19.78 24.5662C19.8061 24.5517 19.8357 24.5441 19.8655 24.5441H22.0236C22.0535 24.5441 22.0831 24.5518 22.1092 24.5662L22.6064 24.8417C22.7515 24.922 22.9133 24.9622 23.0752 24.9622C23.2429 24.9622 23.4104 24.9191 23.5592 24.8333L24.5174 24.2801C24.8099 24.1112 24.9952 23.7966 25.0011 23.4591L25.0112 22.8908C25.0117 22.861 25.0199 22.8316 25.0348 22.8057L26.1139 20.9366C26.1288 20.9108 26.1502 20.889 26.1758 20.8736L26.6628 20.5808C26.9522 20.407 27.132 20.0892 27.132 19.7514V18.645C27.1321 18.3074 26.9523 17.9896 26.663 17.8157ZM7.31522 4.02499H24.4678V14.0877L23.5592 13.5631C23.2667 13.3942 22.9016 13.3911 22.6064 13.5547L22.1094 13.8301C22.0832 13.8446 22.0535 13.8523 22.0237 13.8523H19.8655C19.8357 13.8523 19.806 13.8446 19.78 13.8302L19.2829 13.5548C18.9876 13.3911 18.6224 13.3943 18.33 13.5631L17.3718 14.1163C17.0795 14.2851 16.8941 14.5997 16.8881 14.9373L16.8781 15.5056C16.8776 15.5354 16.8694 15.5649 16.8545 15.5907L15.7755 17.4596C15.7605 17.4855 15.7391 17.5074 15.7135 17.5228L15.2263 17.8156C14.937 17.9896 14.7572 18.3074 14.7572 18.645V19.7515C14.7572 20.0891 14.9369 20.407 15.2263 20.5808L15.4703 20.7275H7.31522V4.02499ZM26.341 19.7515C26.341 19.8131 26.3082 19.8711 26.2554 19.9028L25.7681 20.1957C25.6279 20.2801 25.5105 20.3996 25.4288 20.5412L24.3498 22.4101C24.2679 22.5519 24.2231 22.7133 24.2202 22.8769L24.2102 23.4453C24.209 23.5068 24.1753 23.5642 24.1219 23.595L23.1637 24.1483C23.1104 24.179 23.0438 24.1797 22.9898 24.1498L22.4927 23.8743C22.3495 23.795 22.1873 23.7531 22.0237 23.7531H19.8655C19.7018 23.7531 19.5396 23.795 19.3965 23.8743L18.8993 24.1498C18.8455 24.1797 18.7788 24.179 18.7255 24.1483L17.7673 23.595C17.7139 23.5642 17.6801 23.5068 17.679 23.4452L17.669 22.877C17.6661 22.7133 17.6214 22.5519 17.5395 22.4102L16.4604 20.5411C16.3786 20.3995 16.2613 20.2801 16.121 20.1956L15.6338 19.9027C15.581 19.871 15.5482 19.8131 15.5482 19.7515V18.645C15.5482 18.5834 15.581 18.5254 15.6338 18.4937L16.1211 18.2008C16.2613 18.1164 16.3786 17.997 16.4605 17.8553L17.5395 15.9863C17.6214 15.8446 17.6661 15.6832 17.669 15.5195L17.679 14.9513C17.6801 14.8897 17.7139 14.8322 17.7673 14.8014L18.7255 14.2482C18.7788 14.2175 18.8454 14.2168 18.8993 14.2467L19.3967 14.5223C19.5398 14.6015 19.7019 14.6434 19.8655 14.6434H22.0237C22.1872 14.6434 22.3493 14.6015 22.4927 14.5222L22.9899 14.2467C23.0438 14.2169 23.1104 14.2175 23.1637 14.2482L24.1219 14.8014C24.1753 14.8322 24.209 14.8896 24.2102 14.9513L24.2202 15.5195C24.2231 15.6831 24.2679 15.8445 24.3497 15.9863L25.4287 17.8552C25.5105 17.9969 25.6278 18.1164 25.7682 18.2008L26.2554 18.4937C26.3082 18.5255 26.341 18.5834 26.341 18.645V19.7515Z" fill="#6471d7"></path>
    <path d="M20.945 15.5334C18.9243 15.5334 17.2803 17.1775 17.2803 19.1982C17.2803 21.2189 18.9243 22.863 20.945 22.863C21.8355 22.863 22.6945 22.5389 23.3636 21.9505C23.5276 21.8062 23.5436 21.5562 23.3994 21.3922C23.2551 21.2282 23.0051 21.2121 22.8411 21.3564C22.3165 21.8177 21.6431 22.0718 20.945 22.0718C19.3605 22.0718 18.0714 20.7827 18.0714 19.1982C18.0714 17.6136 19.3605 16.3245 20.945 16.3245C22.5295 16.3245 23.8186 17.6136 23.8186 19.1982C23.8186 19.5469 23.7563 19.8886 23.6335 20.2136C23.5562 20.4179 23.6593 20.6462 23.8637 20.7234C24.0679 20.8006 24.2964 20.6977 24.3735 20.4933C24.5303 20.0785 24.6098 19.6428 24.6098 19.1982C24.6098 17.1775 22.9657 15.5334 20.945 15.5334Z" fill="#6471d7"></path>
    <path d="M2.76373 6.4541H4.68008C4.8986 6.4541 5.07565 6.27705 5.07565 6.05853C5.07565 5.84002 4.8986 5.66296 4.68008 5.66296H2.76373C2.54522 5.66296 2.36816 5.84002 2.36816 6.05853C2.36816 6.27705 2.54522 6.4541 2.76373 6.4541Z" fill="#6471d7"></path>
    <path d="M2.76373 8.88318H4.68008C4.8986 8.88318 5.07565 8.70612 5.07565 8.48761C5.07565 8.2691 4.8986 8.09204 4.68008 8.09204H2.76373C2.54522 8.09204 2.36816 8.2691 2.36816 8.48761C2.36816 8.70612 2.54522 8.88318 2.76373 8.88318Z" fill="#6471d7"></path>
    <path d="M2.76373 11.3124H4.68008C4.8986 11.3124 5.07565 11.1353 5.07565 10.9168C5.07565 10.6983 4.8986 10.5212 4.68008 10.5212H2.76373C2.54522 10.5212 2.36816 10.6983 2.36816 10.9168C2.36816 11.1353 2.54522 11.3124 2.76373 11.3124Z" fill="#6471d7"></path>
    <path d="M2.76373 13.7415H4.68008C4.8986 13.7415 5.07565 13.5644 5.07565 13.3459C5.07565 13.1274 4.8986 12.9503 4.68008 12.9503H2.76373C2.54522 12.9503 2.36816 13.1274 2.36816 13.3459C2.36816 13.5644 2.54522 13.7415 2.76373 13.7415Z" fill="#6471d7"></path>
    <path d="M2.76373 16.1705H4.68008C4.8986 16.1705 5.07565 15.9935 5.07565 15.775C5.07565 15.5565 4.8986 15.3794 4.68008 15.3794H2.76373C2.54522 15.3794 2.36816 15.5565 2.36816 15.775C2.36816 15.9935 2.54522 16.1705 2.76373 16.1705Z" fill="#6471d7"></path>
  </g>
  <defs>
    <clipPath id="clip0_420_805">
      <rect width="27.0042" height="25" fill="white" transform="translate(0.12793)"></rect>
    </clipPath>
  </defs>
</svg>
