<?xml version="1.0" encoding="UTF-8"?>
<svg xmlns="http://www.w3.org/2000/svg" width="60" height="60" viewBox="0 0 60 60" fill="none">
  <g clip-path="url(#clip0_833_1342)">
    <path d="M23.4103 25.9424C23.8958 25.9424 24.2892 25.5489 24.2892 25.0635C24.2892 24.5781 23.8958 24.1846 23.4103 24.1846H19.2008C18.7153 24.1846 18.3219 24.5781 18.3219 25.0635V35.0537C18.3219 35.5391 18.7153 35.9326 19.2008 35.9326H23.4103C23.8958 35.9326 24.2892 35.5391 24.2892 35.0537C24.2892 34.5683 23.8958 34.1748 23.4103 34.1748H20.0797V30.9375H23.0999C23.5854 30.9375 23.9788 30.544 23.9788 30.0586C23.9788 29.5732 23.5854 29.1797 23.0999 29.1797H20.0797V25.9424H23.4103Z" fill="#EC9B00"></path>
    <path d="M33.2529 27.6376C33.2529 25.7082 31.6166 24.1384 29.6054 24.1384H26.9261V24.1385C26.9251 24.1385 26.924 24.1384 26.923 24.1384C26.4375 24.1384 26.0441 24.5319 26.0441 25.0173V35.0996C26.0441 35.585 26.4375 35.9785 26.923 35.9785C27.4085 35.9785 27.8019 35.585 27.8019 35.0996V31.2351L31.7143 35.6802C31.888 35.8777 32.1307 35.9785 32.3744 35.9785C32.5807 35.9785 32.7877 35.9063 32.9547 35.7593C33.3191 35.4387 33.3545 34.8832 33.0338 34.5189L30.035 31.1117C31.8443 30.9071 33.2529 29.4276 33.2529 27.6376ZM29.6054 29.3789C29.1961 29.3789 28.4263 29.3825 27.8186 29.3856C27.8154 28.7871 27.8096 26.5196 27.8077 25.8962H29.6054C30.6296 25.8962 31.495 26.6937 31.495 27.6376C31.495 28.5816 30.6296 29.3789 29.6054 29.3789Z" fill="#EC9B00"></path>
    <path d="M35.1249 25.0173V35.0996C35.1249 35.585 35.5183 35.9785 36.0038 35.9785C36.4893 35.9785 36.8827 35.585 36.8827 35.0996V31.5942C37.5263 31.5907 38.3706 31.5866 38.8111 31.5866C40.8953 31.5866 42.591 29.916 42.591 27.8625C42.591 25.8091 40.8953 24.1384 38.8111 24.1384H36.0038C35.5184 24.1384 35.1249 24.5319 35.1249 25.0173ZM38.8111 25.8962C39.9073 25.8962 40.8332 26.7967 40.8332 27.8625C40.8332 28.9284 39.9073 29.8288 38.8111 29.8288C38.3727 29.8288 37.5399 29.8328 36.8972 29.8363C36.8938 29.1755 36.8873 26.584 36.8853 25.8961H38.8111V25.8962Z" fill="#EC9B00"></path>
    <path d="M47.4654 25.9052L50.7365 23.3998C51.5934 22.7435 51.8884 21.5917 51.4536 20.599C51.1063 19.8058 50.7135 19.0283 50.286 18.288C49.858 17.5465 49.3809 16.8175 48.8682 16.1211C48.2258 15.2484 47.0811 14.9279 46.0842 15.3418L42.2743 16.9239C42.0719 17.0077 41.8459 16.9768 41.6975 16.8448C40.9147 16.1484 40.0646 15.5184 39.171 14.9723C38.7568 14.719 38.2159 14.8498 37.9626 15.2641C37.7096 15.6782 37.8402 16.2192 38.2544 16.4723C39.0589 16.9639 39.8243 17.5311 40.5289 18.1581C41.178 18.7355 42.1276 18.8882 42.9483 18.5473L46.7581 16.9653C47.0055 16.8625 47.291 16.9438 47.4525 17.1632C47.9267 17.8075 48.368 18.4816 48.7636 19.167C49.1587 19.8513 49.522 20.5703 49.8433 21.3042C49.9526 21.5535 49.8803 21.8415 49.6676 22.0044L46.3964 24.5097C45.6915 25.0496 45.349 25.9477 45.5237 26.7978C45.7391 27.8462 45.8483 28.9236 45.8483 30.0002C45.8483 31.0767 45.7391 32.1541 45.5237 33.2026C45.3492 34.0526 45.6917 34.9508 46.3964 35.4904L49.6676 37.9959C49.8801 38.1588 49.9526 38.4467 49.8433 38.6961C49.5223 39.4293 49.159 40.1484 48.7636 40.8333C48.3677 41.5189 47.9266 42.1931 47.4525 42.8371C47.291 43.0564 47.0053 43.1374 46.7581 43.0349L42.9483 41.4528C42.1276 41.1121 41.1782 41.2648 40.5292 41.842C38.9069 43.2849 37.0434 44.3615 34.9902 45.0421C34.1658 45.3155 33.5584 46.063 33.443 46.9464L32.9089 51.0306C32.8741 51.2963 32.661 51.5029 32.3904 51.533C31.5947 51.6216 30.7904 51.6666 29.9996 51.6666C29.2089 51.6666 28.4046 51.6217 27.6089 51.533C27.3383 51.5029 27.1251 51.2963 27.0903 51.0308L26.5563 46.9465C26.4409 46.0629 25.8335 45.3155 25.009 45.0422C22.9558 44.3617 21.0923 43.285 19.4702 41.8422C18.8214 41.2649 17.8714 41.1124 17.051 41.4529L13.2411 43.0351C12.9939 43.1375 12.7081 43.0565 12.5468 42.8371C12.0726 42.1931 11.6315 41.5189 11.2357 40.8335C10.8403 40.1485 10.477 39.4294 10.1559 38.6962C10.0467 38.4468 10.1191 38.1589 10.3317 37.9959L13.6029 35.4905C14.3076 34.9508 14.6502 34.0526 14.4756 33.2024C14.2602 32.1541 14.151 31.0767 14.151 30.0002C14.151 28.9236 14.2602 27.8463 14.4756 26.7979C14.6502 25.9478 14.3076 25.0497 13.6029 24.5098L10.3323 22.0044C10.1196 21.8415 10.0473 21.5535 10.1565 21.304C10.4778 20.5702 10.8411 19.8512 11.2363 19.1669C11.6319 18.4816 12.0731 17.8074 12.5474 17.1631C12.7087 16.944 12.9941 16.8624 13.2417 16.9653L17.0516 18.5473C17.8723 18.8882 18.8218 18.7353 19.4709 18.1581C21.0928 16.7153 22.9562 15.6386 25.0097 14.9581C25.8341 14.6847 26.4415 13.9373 26.5569 13.0538L27.0909 8.96959C27.1257 8.70393 27.3389 8.49732 27.6096 8.46721C28.4046 8.37861 29.209 8.33361 30.0002 8.33361C30.7915 8.33361 31.5958 8.3785 32.391 8.46721C32.6616 8.49732 32.8747 8.70393 32.9095 8.96947L33.4435 13.0537C33.559 13.9373 34.1664 14.6847 34.9908 14.958C35.4519 15.1108 35.9489 14.861 36.1016 14.4003C36.2544 13.9395 36.0047 13.4422 35.5439 13.2895C35.3555 13.227 35.2151 13.045 35.1864 12.8258L34.6523 8.74143C34.5124 7.67127 33.6626 6.84006 32.5854 6.71994C31.7259 6.6242 30.856 6.57568 30 6.57568C29.1439 6.57568 28.274 6.62432 27.4146 6.71994C26.3375 6.83994 25.4877 7.67127 25.3476 8.74143L24.8136 12.8256C24.7849 13.0448 24.6446 13.2268 24.4562 13.2894C22.1743 14.0457 20.1039 15.2418 18.3021 16.8446C18.1537 16.9765 17.9276 17.0076 17.7253 16.9237L13.9154 15.3417C12.9191 14.9279 11.774 15.2481 11.1314 16.1208C10.6187 16.8173 10.1417 17.5464 9.71366 18.2878C9.28627 19.028 8.89334 19.8057 8.546 20.5988C8.11123 21.5916 8.40619 22.7433 9.26307 23.3997L12.5342 25.9052C12.7077 26.038 12.7939 26.2495 12.754 26.4439C12.5148 27.6085 12.3935 28.8049 12.3935 29.9999C12.3935 31.195 12.5148 32.3914 12.754 33.5559C12.7939 33.7504 12.7076 33.9619 12.5342 34.0948L9.26307 36.6003C8.40619 37.2565 8.11135 38.4083 8.546 39.4011C8.89299 40.1936 9.2858 40.9712 9.71366 41.7121C10.1419 42.4538 10.6189 43.1828 11.1314 43.879C11.7737 44.7519 12.9185 45.0724 13.9154 44.6582L17.7253 43.0762C17.9272 42.9923 18.1535 43.0232 18.3021 43.1554C20.104 44.7583 22.1746 45.9544 24.4561 46.7106C24.6445 46.7731 24.7849 46.9551 24.8136 47.1744L25.3476 51.2587C25.4876 52.329 26.3375 53.1602 27.4146 53.2802C28.2746 53.3759 29.1445 53.4244 30 53.4244C30.8555 53.4244 31.7253 53.3758 32.5854 53.2802C33.6623 53.1603 34.5123 52.329 34.6523 51.2587L35.1864 47.1745C35.2151 46.9553 35.3553 46.7733 35.5438 46.7108C37.8254 45.9546 39.896 44.7584 41.698 43.1555C41.8465 43.0236 42.0728 42.9925 42.2747 43.0764L46.0846 44.6585C47.081 45.0724 48.2262 44.752 48.8686 43.8793C49.381 43.1831 49.858 42.4539 50.2863 41.7122C50.714 40.9713 51.107 40.1937 51.454 39.4012C51.8886 38.4084 51.5937 37.2568 50.7369 36.6005L47.4657 34.0951C47.2924 33.9623 47.206 33.7508 47.246 33.5563C47.4852 32.3917 47.6065 31.1954 47.6065 30.0003C47.6065 28.8052 47.4852 27.6087 47.246 26.4441C47.2057 26.2495 47.2919 26.0381 47.4654 25.9052Z" fill="#EC9B00"></path>
    <path d="M57.1124 17.1421C56.9042 16.7037 56.3796 16.517 55.9415 16.7254C55.503 16.9336 55.3164 17.4579 55.5246 17.8965C57.3279 21.6923 58.2422 25.7645 58.2422 30C58.2422 37.5439 55.3046 44.6361 49.9703 49.9703C44.6362 55.3046 37.5439 58.2422 30 58.2422C25.526 58.2422 21.2476 57.2269 17.2837 55.2245C13.9807 53.556 10.9968 51.2136 8.5737 48.3987L12.0413 49.5547C12.5018 49.7079 12.9995 49.4593 13.153 48.9987C13.3066 48.5382 13.0578 48.0405 12.5972 47.887L6.35698 45.8069C6.06776 45.7107 5.74972 45.7707 5.51581 45.9659C5.28202 46.1611 5.16589 46.4635 5.2089 46.765L6.24893 54.0453C6.31151 54.4837 6.68757 54.8 7.11788 54.8C7.15936 54.8 7.2012 54.797 7.24327 54.7911C7.72386 54.7224 8.05772 54.2772 7.98905 53.7967L7.40874 49.7345C9.95159 52.6384 13.0581 55.0593 16.4909 56.7934C20.7032 58.9212 25.2482 60 30 60C38.0133 60 45.5471 56.8795 51.2133 51.2133C56.8794 45.547 60 38.0133 60 30C60 25.5016 59.0285 21.1756 57.1124 17.1421Z" fill="#EC9B00"></path>
    <path d="M1.75781 30C1.75781 22.4562 4.69547 15.364 10.0297 10.0297C15.364 4.69547 22.4562 1.75781 30 1.75781C38.3034 1.75781 46.0433 5.33133 51.4238 11.6005L47.9586 10.4455C47.4979 10.2919 47.0003 10.5409 46.8469 11.0014C46.6935 11.462 46.9422 11.9597 47.4027 12.1132L53.6429 14.1933C53.7339 14.2235 53.8276 14.2384 53.9208 14.2384C54.1238 14.2384 54.3237 14.1681 54.4841 14.0343C54.7179 13.839 54.834 13.5367 54.791 13.2352L53.751 5.95488C53.6824 5.4743 53.2356 5.14078 52.7566 5.2091C52.2761 5.27777 51.9422 5.72297 52.0109 6.20344L52.5906 10.2614C46.883 3.72187 38.7349 0 30 0C21.9867 0 14.453 3.12059 8.78672 8.78672C3.12059 14.4531 0 21.9867 0 30C0 34.4985 0.971485 38.8245 2.88762 42.8579C3.03809 43.1747 3.35332 43.36 3.68203 43.36C3.80836 43.36 3.93691 43.3325 4.05855 43.2746C4.49707 43.0664 4.68363 42.5421 4.47539 42.1036C2.67211 38.3078 1.75781 34.2355 1.75781 30Z" fill="#EC9B00"></path>
  </g>
  <defs>
    <clipPath id="clip0_833_1342">
      <rect width="60" height="60" fill="white"></rect>
    </clipPath>
  </defs>
</svg>
