<svg width="28" height="25" viewBox="0 0 28 25" fill="none" xmlns="http://www.w3.org/2000/svg">
<path d="M2.1421 21.4064H3.03346V20.515H2.1421C1.64973 20.515 1.25074 20.116 1.25074 19.6236V1.7964C1.25074 1.30403 1.64973 0.905034 2.1421 0.905034H21.7521C22.2444 0.905034 22.6434 1.30403 22.6434 1.7964V2.68776H23.5348V1.7964C23.5348 0.811887 22.7366 0.0136719 21.7521 0.0136719H2.1421C1.15759 0.0136719 0.359375 0.811887 0.359375 1.7964V19.6236C0.359375 20.6082 1.15759 21.4064 2.1421 21.4064Z" fill="#39A5CE"/>
<path d="M2.14211 1.79639H3.03347V2.68775H2.14211V1.79639Z" fill="#39A5CE"/>
<path d="M3.92482 1.79639H4.81618V2.68775H3.92482V1.79639Z" fill="#39A5CE"/>
<path d="M5.70755 1.79639H6.59891V2.68775H5.70755V1.79639Z" fill="#39A5CE"/>
<path d="M3.92482 23.1891C3.92482 24.1736 4.72303 24.9718 5.70754 24.9718H25.3175C26.302 24.9718 27.1002 24.1736 27.1002 23.1891V5.36183C27.1002 4.37732 26.302 3.5791 25.3175 3.5791H5.70754C4.72303 3.5791 3.92482 4.37732 3.92482 5.36183V23.1891ZM4.81618 5.36183C4.81618 4.86946 5.21518 4.47046 5.70754 4.47046H25.3175C25.8099 4.47046 26.2089 4.86946 26.2089 5.36183V23.1891C26.2089 23.6814 25.8099 24.0804 25.3175 24.0804H5.70754C5.21518 24.0804 4.81618 23.6814 4.81618 23.1891V5.36183Z" fill="#39A5CE"/>
<path d="M5.70755 5.36182H6.59891V6.25318H5.70755V5.36182Z" fill="#39A5CE"/>
<path d="M7.49027 5.36182H8.38163V6.25318H7.49027V5.36182Z" fill="#39A5CE"/>
<path d="M9.27299 5.36182H10.1644V6.25318H9.27299V5.36182Z" fill="#39A5CE"/>
<path d="M5.70755 7.14453H25.3175V8.03589H5.70755V7.14453Z" fill="#39A5CE"/>
<path d="M5.70755 9.37305H9.273V10.2644H5.70755V9.37305Z" fill="#39A5CE"/>
<path d="M5.70755 11.1558H8.38164V12.0471H5.70755V11.1558Z" fill="#39A5CE"/>
<path d="M15.5125 12.9385C13.7894 12.9385 12.3928 14.3351 12.3928 16.0582C12.3928 17.7814 13.7894 19.178 15.5125 19.178C17.2356 19.178 18.6323 17.7814 18.6323 16.0582C18.6303 14.3361 17.2346 12.9405 15.5125 12.9385ZM15.5125 18.2867C14.2819 18.2867 13.2841 17.2889 13.2841 16.0582C13.2841 14.8276 14.2819 13.8298 15.5125 13.8298C16.7432 13.8298 17.7409 14.8276 17.7409 16.0582C17.7394 17.2883 16.7426 18.2851 15.5125 18.2867Z" fill="#39A5CE"/>
<path d="M22.6434 14.7211C22.6434 14.4749 22.444 14.2754 22.1978 14.2754H21.0198C20.9254 13.9826 20.8078 13.6977 20.6673 13.4242L21.5003 12.5917C21.6741 12.4176 21.6741 12.1356 21.5003 11.9614L19.6092 10.0704C19.4351 9.8966 19.1531 9.8966 18.9789 10.0704L18.1465 10.903C17.8725 10.763 17.5878 10.6453 17.2953 10.5509V9.37293C17.2953 9.12669 17.0958 8.92725 16.8496 8.92725H14.1755C13.9293 8.92725 13.7298 9.12669 13.7298 9.37293V10.5509C13.4372 10.6453 13.1525 10.763 12.8786 10.903L12.0461 10.0704C11.872 9.8966 11.59 9.8966 11.4158 10.0704L9.52481 11.9614C9.35099 12.1356 9.35099 12.4176 9.52481 12.5917L10.3573 13.4242C10.3201 13.4971 10.2843 13.5704 10.2504 13.6443C10.1563 13.8498 10.0746 14.0604 10.0053 14.2754H8.82732C8.58108 14.2754 8.38164 14.4749 8.38164 14.7211V17.3952C8.38164 17.6414 8.58108 17.8409 8.82732 17.8409H10.0053C10.0996 18.1337 10.2173 18.4186 10.3578 18.6921L9.52481 19.5245C9.35099 19.6987 9.35099 19.9807 9.52481 20.1548L11.4158 22.0459C11.59 22.2197 11.872 22.2197 12.0461 22.0459L12.8786 21.2133C13.1525 21.3533 13.4372 21.4709 13.7298 21.5654V22.7434C13.7298 22.9896 13.9293 23.189 14.1755 23.189H16.8496C17.0958 23.189 17.2953 22.9896 17.2953 22.7434V21.5654C17.5878 21.4709 17.8725 21.3533 18.1465 21.2133L18.9789 22.0459C19.1531 22.2197 19.4351 22.2197 19.6092 22.0459L21.5003 20.1548C21.6741 19.9807 21.6741 19.6987 21.5003 19.5245L20.6673 18.6921C20.8078 18.4186 20.9254 18.1337 21.0198 17.8409H22.1978C22.444 17.8409 22.6434 17.6414 22.6434 17.3952V14.7211ZM21.7521 16.9495H20.6851C20.4819 16.9495 20.3045 17.0871 20.2537 17.2838C20.1398 17.7261 19.9643 18.1506 19.7322 18.5442C19.629 18.7191 19.6574 18.9419 19.8009 19.0857L20.5544 19.8396L19.294 21.1006L18.54 20.3465C18.3962 20.2028 18.1734 20.1745 17.9983 20.2779C17.6048 20.5099 17.1805 20.6855 16.7382 20.7993C16.5415 20.8501 16.4039 21.0275 16.4039 21.2307V22.2977H14.6212V21.2307C14.6212 21.0275 14.4836 20.8501 14.2869 20.7993C13.8446 20.6855 13.4203 20.5099 13.0267 20.2779C12.8517 20.1745 12.6289 20.2028 12.485 20.3465L11.731 21.1006L10.4707 19.8396L11.2242 19.0857C11.3677 18.9419 11.3961 18.7191 11.2928 18.5442C11.0607 18.1506 10.8853 17.7261 10.7714 17.2838C10.7206 17.0871 10.5432 16.9495 10.34 16.9495H9.273V15.1668H10.34C10.5432 15.1668 10.7206 15.0292 10.7714 14.8325C10.8434 14.552 10.9404 14.2788 11.0612 14.0157C11.1308 13.8632 11.2081 13.7144 11.2928 13.57C11.3958 13.395 11.3676 13.1725 11.2242 13.0288L10.4707 12.2749L11.731 11.0139L12.485 11.7682C12.6289 11.912 12.8517 11.9401 13.0267 11.8365C13.4203 11.6047 13.8446 11.4289 14.2869 11.3151C14.4836 11.2644 14.6212 11.0868 14.6212 10.8839V9.81861H16.4039V10.8856C16.4039 11.0888 16.5415 11.2662 16.7382 11.317C17.1805 11.4307 17.6048 11.6063 17.9983 11.8384C18.1734 11.9418 18.3962 11.9135 18.54 11.7698L19.294 11.0157L20.5544 12.2767L19.8009 13.0306C19.6574 13.1744 19.629 13.3972 19.7322 13.5721C19.9643 13.9657 20.1398 14.3902 20.2537 14.8325C20.3045 15.0292 20.4819 15.1668 20.6851 15.1668H21.7521V16.9495Z" fill="#39A5CE"/>
<path d="M22.6434 22.2979H25.3175V23.1892H22.6434V22.2979Z" fill="#39A5CE"/>
</svg>
