<svg width="45" height="45" viewBox="0 0 45 45" fill="none" xmlns="http://www.w3.org/2000/svg">
<path d="M20.3216 29.0695C20.3216 30.1968 21.2389 31.1141 22.3662 31.1141C23.4936 31.1141 24.4108 30.1968 24.4108 29.0695C24.4108 27.9421 23.4936 27.0249 22.3662 27.0249C21.2389 27.0249 20.3216 27.9421 20.3216 29.0695V29.0695ZM23.2761 29.0695C23.2761 29.5712 22.868 29.9793 22.3662 29.9793C21.8644 29.9793 21.4563 29.5712 21.4563 29.0695C21.4563 28.5677 21.8644 28.1596 22.3662 28.1596C22.868 28.1596 23.2761 28.5677 23.2761 29.0695ZM35.0295 18.9422L30.4356 17.0799L30.3141 15.4561C30.268 14.8397 29.7476 14.3569 29.1294 14.3569H28.5331L28.3336 12.379C28.2299 11.351 27.3723 10.5759 26.3393 10.5759H25.7485C24.7155 10.5759 23.8579 11.351 23.7542 12.379L23.5547 14.3569H22.9581C22.3402 14.3569 21.8198 14.8397 21.7737 15.4561L21.3284 21.4073C21.3231 21.4794 21.3065 21.5503 21.2796 21.618L20.9581 22.4253C20.8287 22.7501 20.8683 23.1165 21.0645 23.4058C21.2607 23.6951 21.5864 23.8677 21.9359 23.8677H30.1516C30.1888 23.8677 30.2257 23.8647 30.2621 23.8609C30.4616 24.2453 30.8472 24.4812 31.2834 24.4812C31.3073 24.4812 31.3312 24.4806 31.3552 24.4791C31.859 24.4492 32.2709 24.1156 32.4042 23.6289L32.7689 22.2994L34.1326 23.6635C34.2437 23.7743 34.3888 23.8296 34.5339 23.8296C34.6793 23.8296 34.8244 23.7743 34.9352 23.6635C35.1568 23.4419 35.1568 23.0825 34.9352 22.8612L33.5712 21.4971L34.9006 21.1328C35.3873 20.9992 35.7209 20.5876 35.7508 20.0837C35.78 19.5799 35.4973 19.1319 35.0295 18.9422V18.9422ZM24.883 12.4931C24.9282 12.0469 25.3003 11.7106 25.7485 11.7106H26.339C26.7872 11.7106 27.1593 12.0469 27.2045 12.4931L27.3924 14.3569H24.6948L24.883 12.4931ZM22.0568 22.7329L22.3337 22.0382C22.4034 21.863 22.446 21.6792 22.4599 21.4915L22.9052 15.5407C22.9073 15.5132 22.9303 15.4916 22.9581 15.4916H28.0186H28.0192H28.0201H29.1294C29.1569 15.4916 29.1802 15.5132 29.1823 15.5407L29.2766 16.7989C28.979 16.8361 28.6965 16.9721 28.4701 17.1987C28.0683 17.6003 27.9512 18.1771 28.1649 18.7037L29.7984 22.7329H22.0568ZM34.6137 20.0332C34.6137 20.0332 34.6104 20.0356 34.6007 20.0382L32.6542 20.5719C32.4713 20.6219 32.3067 20.7164 32.1716 20.8426C32.1613 20.8515 32.151 20.86 32.1412 20.8698C32.1315 20.8798 32.1226 20.8902 32.1137 20.9005C31.9878 21.0356 31.8933 21.1999 31.8433 21.3828L31.3097 23.329C31.3073 23.3381 31.3049 23.342 31.3049 23.342C31.2984 23.3467 31.2783 23.3479 31.2721 23.3441C31.2721 23.3441 31.2692 23.3411 31.2653 23.3316L31.0803 22.8754C31.08 22.8745 31.0795 22.8736 31.0792 22.8727L29.2163 18.2773C29.161 18.1411 29.2275 18.0456 29.2721 18.001C29.3049 17.9682 29.3646 17.9239 29.4474 17.9239C29.4781 17.9239 29.5118 17.9301 29.5487 17.9449L34.6031 19.9939C34.6116 19.9975 34.6149 20.0001 34.6152 20.0001C34.6196 20.0072 34.6184 20.0273 34.6137 20.0332V20.0332ZM17.1662 16.8887H11.3672C10.434 16.8887 9.67516 17.6479 9.67516 18.5808V19.9008C9.67516 20.8337 10.434 21.5929 11.3672 21.5929H17.1662C18.0994 21.5929 18.8583 20.8337 18.8583 19.9008V18.5808C18.8583 17.6479 18.0994 16.8887 17.1662 16.8887ZM17.7235 19.9008C17.7235 20.2082 17.4735 20.4582 17.1662 20.4582H11.3672C11.0599 20.4582 10.8099 20.2082 10.8099 19.9008V18.5808C10.8099 18.2735 11.0599 18.0235 11.3672 18.0235H17.1662C17.4735 18.0235 17.7235 18.2735 17.7235 18.5808V19.9008ZM38.481 5H6.25144C4.45861 5 3 6.45861 3 8.25144V10.7644C3 11.0779 3.25384 11.3318 3.56737 11.3318C3.8809 11.3318 4.13474 11.0779 4.13474 10.7644V8.25144C4.13474 7.0842 5.08449 6.13474 6.25144 6.13474H38.4807C39.6479 6.13474 40.5977 7.0842 40.5977 8.25144V25.4684H38.6225V9.67223C38.6225 8.81083 37.9216 8.10989 37.0599 8.10989H7.67252C6.81083 8.10989 6.10989 8.81083 6.10989 9.67223V25.4684H4.13474V13.4636C4.13474 13.1503 3.8809 12.8962 3.56737 12.8962C3.25384 12.8962 3 13.1503 3 13.4636V29.4187C3 31.2116 4.45861 32.6705 6.25144 32.6705H17.5542L16.7513 36.0711H15.7679C15.0158 36.0711 14.4038 36.6828 14.4038 37.4352V38.1548C14.4038 38.9068 15.0158 39.5188 15.7679 39.5188H28.9645C29.7166 39.5188 30.3286 38.9068 30.3286 38.1548V37.4352C30.3286 36.6828 29.7166 36.0711 28.9645 36.0711H27.9811L27.1782 32.6705H34.1973C34.5106 32.6705 34.7647 32.4163 34.7647 32.1031C34.7647 31.7896 34.5106 31.5357 34.1973 31.5357H6.25144C5.0842 31.5357 4.13474 30.586 4.13474 29.4187V26.6032H40.5977V29.4187C40.5977 30.586 39.6479 31.5357 38.481 31.5357H36.89C36.5767 31.5357 36.3226 31.7896 36.3226 32.1031C36.3226 32.4163 36.5767 32.6705 36.89 32.6705H38.481C40.2738 32.6705 41.7324 31.2116 41.7324 29.4187V8.25144C41.7324 6.45861 40.2738 5 38.481 5V5ZM27.5304 37.2059H27.5316H27.5334H28.9645C29.091 37.2059 29.1938 37.3087 29.1938 37.4352V38.1548C29.1938 38.2812 29.091 38.3841 28.9645 38.3841H15.7679C15.6414 38.3841 15.5386 38.2812 15.5386 38.1548V37.4352C15.5386 37.3087 15.6414 37.2059 15.7679 37.2059H17.1987H17.2008H17.202H27.5304ZM18.7203 32.6705H26.0121L26.8153 36.0711H17.9171L18.7203 32.6705ZM37.4878 25.4684H7.24463V9.67223C7.24463 9.43641 7.43641 9.24463 7.67223 9.24463H37.0599C37.2957 9.24463 37.4878 9.43641 37.4878 9.67223V25.4684ZM17.1662 11.6187H11.3672C10.434 11.6187 9.67516 12.3779 9.67516 13.3108V14.6308C9.67516 15.5637 10.434 16.3229 11.3672 16.3229H17.1662C18.0994 16.3229 18.8583 15.5637 18.8583 14.6308V13.3108C18.8583 12.3779 18.0994 11.6187 17.1662 11.6187ZM17.7235 14.6308C17.7235 14.9381 17.4735 15.1881 17.1662 15.1881H11.3672C11.0599 15.1881 10.8099 14.9381 10.8099 14.6308V13.3108C10.8099 13.0035 11.0599 12.7535 11.3672 12.7535H17.1662C17.4735 12.7535 17.7235 13.0035 17.7235 13.3108V14.6308Z" fill="#35B0BF"/>
</svg>
