<svg width="45" height="45" viewBox="0 0 45 45" fill="none" xmlns="http://www.w3.org/2000/svg">
<path d="M40.4594 39.1904C39.4094 39.1904 38.5547 40.0452 38.5547 41.0952C38.5547 42.1452 39.4094 43 40.4594 43C41.5095 43 42.3642 42.1452 42.3642 41.0952C42.3642 40.0452 41.5095 39.1904 40.4594 39.1904ZM40.4594 41.7301C40.1097 41.7301 39.8245 41.4455 39.8245 41.0952C39.8245 40.7449 40.1097 40.4603 40.4594 40.4603C40.8092 40.4603 41.0944 40.7449 41.0944 41.0952C41.0944 41.4455 40.8092 41.7301 40.4594 41.7301Z" fill="#35B0BF"/>
<path d="M6.80952 4.90476C6.80952 3.85472 5.9548 3 4.90476 3C3.85472 3 3 3.85472 3 4.90476C3 5.9548 3.85472 6.80952 4.90476 6.80952C5.9548 6.80952 6.80952 5.9548 6.80952 4.90476ZM4.26984 4.90476C4.26984 4.55506 4.55506 4.26984 4.90476 4.26984C5.25446 4.26984 5.53968 4.55506 5.53968 4.90476C5.53968 5.25446 5.25446 5.53968 4.90476 5.53968C4.55506 5.53968 4.26984 5.25446 4.26984 4.90476Z" fill="#35B0BF"/>
<path d="M37.106 28.1611L35.8519 25.6533C36.1179 25.1136 36.3458 24.5682 36.533 24.0254L39.1877 23.1403V15.8753L36.533 14.9902C36.3464 14.4473 36.1179 13.902 35.8519 13.3623L37.1072 10.852L31.9705 5.71531L29.4603 6.97058C28.9205 6.70458 28.3752 6.4761 27.8323 6.28947L26.9472 3.63477H19.6822L18.7971 6.28947C18.2543 6.4761 17.709 6.70458 17.1692 6.97058L14.659 5.71531L9.52226 10.852L10.7775 13.3623C10.5115 13.902 10.283 14.4473 10.0964 14.9902L7.44172 15.8753V23.1397L10.0964 24.0245C10.2818 24.5636 10.5072 25.1039 10.7707 25.6394L9.95412 27.1268H6.17188V39.8252H10.6163V37.9205H15.4328L17.3375 39.8252H20.775V40.4602C20.775 41.8608 21.9141 42.9998 23.3147 42.9998C24.7154 42.9998 25.8544 41.8608 25.8544 40.4602V39.8252H30.2995C31.3495 39.8252 32.2042 38.9705 32.2042 37.9205C32.2042 37.431 32.0133 36.9886 31.7091 36.6506C32.0139 36.3127 32.2042 35.8703 32.2042 35.3808C32.2042 34.8913 32.0133 34.4489 31.7091 34.111C31.9516 33.8419 32.1171 33.5058 32.1751 33.1313L37.106 28.1611ZM12.052 25.3579C11.7026 24.687 11.4177 24.0049 11.2047 23.3319L11.1071 23.0234L8.71156 22.2245V16.7905L11.1071 15.9922L11.2041 15.6831C11.4162 15.0106 11.7014 14.3286 12.0511 13.6577L12.2005 13.37L11.0671 11.1028L14.9092 7.26076L17.1763 8.39419L17.464 8.24507C18.1355 7.89506 18.817 7.61015 19.4894 7.39779L19.7985 7.30075L20.598 4.90461H26.0321L26.8304 7.30013L27.1394 7.39717C27.8119 7.60922 28.4939 7.89444 29.1648 8.24414L29.4525 8.39357L31.7197 7.26014L35.5618 11.1022L34.4283 13.3694L34.5774 13.6571C34.9275 14.3286 35.2124 15.01 35.4247 15.6824L35.5218 15.9915L37.9179 16.7911V22.2251L35.5224 23.0234L35.4247 23.3319C35.2117 24.0049 34.9268 24.687 34.5774 25.3579L34.4283 25.6456L35.563 27.9143L31.8111 31.695C31.7789 31.6525 31.7445 31.6106 31.7091 31.5713C32.0139 31.2334 32.2042 30.791 32.2042 30.3014C32.2042 29.3109 31.4416 28.5046 30.4746 28.4143C33.1681 26.2557 34.7433 23.0163 34.7433 19.5078C34.7433 13.2063 29.6162 8.07921 23.3147 8.07921C17.0133 8.07921 11.8862 13.2063 11.8862 19.5078C11.8862 22.9738 13.462 26.2343 16.1368 28.3967H10.7059L12.2086 25.6589L12.052 25.3579ZM30.9344 35.3808C30.9344 35.7311 30.6492 36.0157 30.2995 36.0157H25.2195C24.8698 36.0157 24.5846 35.7311 24.5846 35.3808C24.5846 35.0305 24.8698 34.7459 25.2195 34.7459H30.2995C30.6492 34.7459 30.9344 35.0305 30.9344 35.3808ZM21.782 19.5078H24.8475L25.8544 18.5008V15.6983C26.5547 15.6983 27.1243 16.2678 27.1243 16.9681V19.8798L24.9566 22.0475H21.6729L19.5052 19.8798V16.9681C19.5052 16.2678 20.0747 15.6983 20.775 15.6983V18.5008L21.782 19.5078ZM22.0449 23.3173H24.5846V25.857H22.0449V23.3173ZM25.8544 22.9453L28.3941 20.4056V16.9681C28.3941 15.5674 27.2551 14.4284 25.8544 14.4284H24.5846V17.975L24.3217 18.2379H22.3078L22.0449 17.975V14.4284H20.775C19.3744 14.4284 18.2354 15.5674 18.2354 16.9681V20.4056L20.775 22.9453V25.857H19.2423L19.2023 25.897C17.0347 24.4982 15.6957 22.1002 15.6957 19.5078C15.6957 15.3064 19.1133 11.8887 23.3147 11.8887C27.5161 11.8887 30.9338 15.3064 30.9338 19.5078C30.9338 22.0813 29.6481 24.438 27.4963 25.857H25.8544V22.9453ZM32.2036 19.5078C32.2036 14.6061 28.2165 10.6189 23.3147 10.6189C18.413 10.6189 14.4258 14.6061 14.4258 19.5078C14.4258 22.4406 15.8848 25.1712 18.2778 26.8215L17.3636 27.7357C14.7269 25.826 13.156 22.7695 13.156 19.5078C13.156 13.9067 17.7136 9.34905 23.3147 9.34905C28.9159 9.34905 33.4735 13.9067 33.4735 19.5078C33.4735 22.6455 32.0551 25.5408 29.6336 27.4601C29.561 27.01 29.3313 26.6162 29.0011 26.3301C31.0246 24.6501 32.2036 22.1764 32.2036 19.5078V19.5078ZM30.2995 29.6665C30.6492 29.6665 30.9344 29.9511 30.9344 30.3014C30.9344 30.6518 30.6492 30.9364 30.2995 30.9364H25.2195C24.8698 30.9364 24.5846 30.6518 24.5846 30.3014C24.5846 29.9511 24.8698 29.6665 25.2195 29.6665H30.2995ZM25.2195 33.476C24.8698 33.476 24.5846 33.1914 24.5846 32.8411C24.5846 32.4908 24.8698 32.2062 25.2195 32.2062H30.2995C30.6492 32.2062 30.9344 32.4908 30.9344 32.8411C30.9344 33.1914 30.6492 33.476 30.2995 33.476H25.2195ZM9.34648 38.5554H7.44172V28.3967H9.34648V38.5554ZM17.8633 38.5554L15.9586 36.6506H10.6163V29.6665H17.2284L19.7681 27.1268H27.7592C28.1089 27.1268 28.3941 27.4114 28.3941 27.7617C28.3941 28.1121 28.1089 28.3967 27.7592 28.3967H21.1471L18.4214 31.1224L19.3192 32.0202L20.775 30.5643V38.5554H17.8633ZM23.3147 41.73C22.6144 41.73 22.0449 41.1605 22.0449 40.4602V29.6665H23.4316C23.3603 29.8659 23.3147 30.0779 23.3147 30.3014C23.3147 30.791 23.5057 31.2334 23.8098 31.5713C23.5051 31.9092 23.3147 32.3516 23.3147 32.8411C23.3147 33.3306 23.5057 33.773 23.8098 34.111C23.5051 34.4489 23.3147 34.8913 23.3147 35.3808C23.3147 35.8703 23.5057 36.3127 23.8098 36.6506C23.5051 36.9886 23.3147 37.431 23.3147 37.9205C23.3147 38.747 23.8473 39.4455 24.5846 39.7084V40.4602C24.5846 41.1605 24.0151 41.73 23.3147 41.73V41.73ZM30.2995 38.5554H25.2195C24.8698 38.5554 24.5846 38.2708 24.5846 37.9205C24.5846 37.5702 24.8698 37.2856 25.2195 37.2856H30.2995C30.6492 37.2856 30.9344 37.5702 30.9344 37.9205C30.9344 38.2708 30.6492 38.5554 30.2995 38.5554Z" fill="#35B0BF"/>
<path d="M4.26562 8.71387H5.53547V9.98371H4.26562V8.71387Z" fill="#35B0BF"/>
<path d="M4.26562 11.8887H5.53547V13.1585H4.26562V11.8887Z" fill="#35B0BF"/>
<path d="M4.26562 15.0635H5.53547V16.3333H4.26562V15.0635Z" fill="#35B0BF"/>
<path d="M39.8281 29.667H41.098V30.9368H39.8281V29.667Z" fill="#35B0BF"/>
<path d="M39.8281 32.8418H41.098V34.1116H39.8281V32.8418Z" fill="#35B0BF"/>
<path d="M39.8281 36.0156H41.098V37.2855H39.8281V36.0156Z" fill="#35B0BF"/>
</svg>
