<svg width="45" height="45" viewBox="0 0 45 45" fill="none" xmlns="http://www.w3.org/2000/svg">
<path d="M31.9735 11.1455C31.9735 10.8488 31.6982 10.6172 31.4812 10.6172C31.4306 10.6172 31.3799 10.6245 31.3439 10.6535L29.5056 11.8475C29.3392 11.9562 29.2812 12.1298 29.2812 12.2528C29.2812 12.3758 29.3392 12.5495 29.5056 12.6582L31.3439 13.8522C31.3799 13.8812 31.4306 13.8885 31.4812 13.8885C31.6982 13.8885 31.9735 13.6568 31.9735 13.3601C31.9735 13.2371 31.9229 13.1285 31.8432 13.0778L30.5693 12.2528L31.8432 11.4278C31.9226 11.3772 31.9735 11.2685 31.9735 11.1455Z" fill="#35B0BF"/>
<path d="M35.615 8.66992C35.4847 8.66992 35.3687 8.72761 35.311 8.85091L32.7707 14.0686C32.749 14.1119 32.7344 14.1626 32.7344 14.2062C32.7344 14.3869 32.8937 14.5896 33.14 14.5896C33.2774 14.5896 33.415 14.5172 33.4657 14.4089L36.013 9.19092C36.0347 9.14758 36.042 9.09692 36.042 9.05327C36.0417 8.82192 35.8173 8.66992 35.615 8.66992V8.66992Z" fill="#35B0BF"/>
<path d="M39.2684 11.8475L37.4304 10.6535C37.3941 10.6245 37.3435 10.6172 37.2928 10.6172C37.0758 10.6172 36.8008 10.8488 36.8008 11.1455C36.8008 11.2685 36.8514 11.3772 36.9311 11.4278L38.2048 12.2528L36.9311 13.0778C36.8514 13.1285 36.8008 13.2371 36.8008 13.3601C36.8008 13.6568 37.0758 13.8885 37.2928 13.8885C37.3435 13.8885 37.3941 13.8812 37.4304 13.8522L39.2684 12.6582C39.4351 12.5495 39.4928 12.3758 39.4928 12.2528C39.4928 12.1298 39.4351 11.9562 39.2684 11.8475Z" fill="#35B0BF"/>
<path d="M40.1713 4.91358H27.5538C26.9018 3.2117 25.2509 2 23.3223 2H14.8593C12.3623 2 10.3305 4.03181 10.3305 6.52877V11.6713C9.82568 12.1063 9.59097 12.7866 9.71519 13.4715L10.0479 15.3022C10.1675 15.9309 10.5014 16.2541 10.7602 16.4144C11.0499 16.5935 11.3713 16.6527 11.6664 16.6543V16.9796C11.6664 18.6302 12.6294 20.4493 14.3084 21.9708C14.6246 22.2571 14.9533 22.5211 15.2884 22.7598V23.7413C15.2884 24.0404 15.0751 24.2971 14.7808 24.3518C14.7671 24.3542 14.7537 24.3573 14.7402 24.3606C14.7302 24.3634 13.7242 24.6255 12.409 24.9985H8.1119C7.62875 24.9985 7.16269 25.2015 6.83336 25.5549C6.50403 25.9084 6.33495 26.3878 6.36943 26.8698L6.38103 27.0352C4.4591 27.9991 3.24984 29.7272 3.13447 31.6913C3.13416 31.6995 3.13386 31.7077 3.13355 31.716L3.00017 39.7825C2.99285 40.374 3.2181 40.9316 3.63349 41.3525C4.0495 41.7734 4.60407 42.0051 5.19589 42.0051H32.986C33.5775 42.0051 34.1323 41.7734 34.548 41.3525C34.9637 40.9316 35.189 40.3743 35.1817 39.78L35.0483 31.716C35.048 31.7077 35.0477 31.6995 35.0471 31.6913C34.9286 29.6704 33.6522 27.8996 31.6323 26.9537C31.5954 26.9363 31.5566 26.9186 31.5167 26.9006L31.5188 26.8698C31.553 26.3878 31.3839 25.9087 31.0549 25.5549C30.7255 25.2015 30.2595 24.9985 29.7763 24.9985H25.7728C24.458 24.6255 23.4517 24.3634 23.4416 24.3609C23.4282 24.3573 23.4147 24.3542 23.401 24.3518C23.1068 24.2971 22.8934 24.0404 22.8934 23.7413V22.7601C23.2286 22.5211 23.5573 22.2571 23.8735 21.9708C24.9405 21.0039 25.7185 19.9167 26.1437 18.8289H29.9512L29.2861 21.5133C29.1754 21.961 29.353 22.4133 29.7388 22.6658C29.9201 22.7845 30.1234 22.8434 30.3257 22.8434C30.5546 22.8434 30.7823 22.7683 30.9764 22.6191L35.9105 18.8289H40.1713C41.7154 18.8289 42.9713 17.573 42.9713 16.0289V7.71361C42.9713 6.16984 41.7154 4.91358 40.1713 4.91358ZM26.5166 12.6837C26.7407 12.6074 26.9528 12.576 27.091 12.5635C27.2751 12.7268 27.3618 12.9957 27.3135 13.2618L26.9827 15.0833C26.9345 15.3376 26.8368 15.398 26.8048 15.4178C26.7367 15.46 26.6363 15.4816 26.516 15.4828L26.5166 12.6837ZM11.5025 6.52877C11.5025 4.67795 13.0085 3.17202 14.8593 3.17202H23.3226C25.1734 3.17202 26.6793 4.67795 26.6793 6.52877V11.4388C26.3894 11.49 26.0283 11.5883 25.6758 11.7763V8.20562C25.6758 6.92158 24.631 5.87683 23.347 5.87683H21.7632C21.2141 5.87683 20.6779 6.0682 20.2527 6.41554L20.0977 6.54251C19.8144 6.77416 19.4567 6.90174 19.0908 6.90174C18.7248 6.90174 18.3674 6.77416 18.0842 6.54281L17.9288 6.41554C17.504 6.0682 16.9674 5.87683 16.4183 5.87683H14.8349C13.5508 5.87683 12.5061 6.92128 12.5061 8.20562V11.776C12.1536 11.5883 11.7925 11.4897 11.5025 11.4388V6.52877ZM11.3771 15.4178C11.345 15.398 11.2474 15.3376 11.2001 15.0882L10.8683 13.2621C10.8201 12.996 10.9068 12.7274 11.0902 12.5638C11.2284 12.5763 11.4409 12.6071 11.6652 12.6834L11.6658 15.4828C11.5459 15.4816 11.4455 15.46 11.3771 15.4178ZM6.1921 40.4085C6.1921 40.5556 6.21225 40.6978 6.24949 40.833H5.19589C4.91997 40.833 4.66145 40.725 4.46734 40.5287C4.27353 40.3325 4.16884 40.0724 4.17189 39.7993L4.30527 31.748C4.39195 30.341 5.17177 29.121 6.4729 28.3232L7.18832 38.3614C7.20145 38.5458 7.24357 38.7219 7.30949 38.8858C6.66244 39.0896 6.1921 39.6952 6.1921 40.4085ZM30.6996 38.3614L31.4266 28.1614C32.8971 28.9504 33.7838 30.2418 33.8766 31.748L34.01 39.7968C34.013 40.0724 33.908 40.3325 33.7145 40.5287C33.5204 40.725 33.2619 40.833 32.986 40.833H31.9324C31.9699 40.6978 31.9897 40.5556 31.9897 40.4085C31.9897 39.5987 31.3839 38.9282 30.6016 38.8259C30.6544 38.6791 30.6883 38.5235 30.6996 38.3614V38.3614ZM30.8177 40.4085C30.8177 40.6426 30.6273 40.833 30.3935 40.833H7.78838C7.55458 40.833 7.36413 40.6426 7.36413 40.4085C7.36413 40.1747 7.55458 39.9842 7.78838 39.9842H30.3935C30.6273 39.9842 30.8177 40.1747 30.8177 40.4085ZM30.1972 26.3537C30.3071 26.4718 30.3614 26.6253 30.3498 26.7865L29.5306 38.2784C29.5093 38.5778 29.2575 38.8122 28.9571 38.8122H8.93079C8.63077 38.8122 8.37897 38.5778 8.3573 38.2781L7.53841 26.7865C7.52681 26.6253 7.58114 26.4718 7.69101 26.3537C7.80119 26.2355 7.95044 26.1705 8.1119 26.1705H29.7763C29.9375 26.1705 30.087 26.2355 30.1972 26.3537V26.3537ZM22.2363 24.9985H15.9455C16.266 24.6725 16.4604 24.2263 16.4604 23.7413V23.4792C17.3843 23.9574 18.3024 24.2257 19.0908 24.2257C19.8791 24.2257 20.7972 23.9574 21.7214 23.4792V23.7413C21.7214 24.2263 21.9158 24.6725 22.2363 24.9985ZM23.0863 21.1021C21.7779 22.2876 20.2097 23.0537 19.0908 23.0537C17.9722 23.0537 16.404 22.2876 15.0955 21.1021C13.661 19.8028 12.8385 18.3 12.8385 16.9793L12.8372 13.2874C12.8449 13.2874 12.8525 13.2877 12.8601 13.2877C12.966 13.2877 13.0729 13.267 13.1751 13.2243C13.4806 13.0967 13.6781 12.8003 13.6781 12.4695V8.20562C13.6781 7.56772 14.197 7.04886 14.8349 7.04886H16.4186C16.6979 7.04886 16.9707 7.14622 17.1868 7.32294L17.3425 7.45021C17.8345 7.85218 18.4553 8.07377 19.0908 8.07377C19.7262 8.07377 20.3473 7.85218 20.8393 7.44991L20.9947 7.32294C21.2108 7.14622 21.484 7.04886 21.7632 7.04886H23.3467C23.9846 7.04886 24.5037 7.56772 24.5037 8.20562V12.4695C24.5037 12.8006 24.7009 13.0967 25.0067 13.2243C25.116 13.27 25.2311 13.2905 25.3443 13.2874L25.3434 16.9796C25.3437 18.3 24.5208 19.8028 23.0863 21.1021ZM41.7993 16.0289C41.7993 16.9265 41.0693 17.6569 40.1713 17.6569H35.7115C35.5824 17.6569 35.457 17.6996 35.3547 17.7784L30.4939 21.512L31.2688 18.3839C31.3122 18.209 31.2728 18.0238 31.1617 17.8818C31.0506 17.7399 30.8803 17.6569 30.7002 17.6569H26.4635C26.498 17.4289 26.5157 17.2027 26.5157 16.9796V16.6543C26.8106 16.6527 27.1319 16.5935 27.4216 16.4144C27.6807 16.2541 28.0146 15.9309 28.1349 15.2976L28.4666 13.4715C28.5912 12.7866 28.3559 12.106 27.8513 11.6713V6.52877C27.8513 6.37952 27.844 6.23149 27.8297 6.0856H40.1713C41.0693 6.0856 41.7993 6.81598 41.7993 7.71361V16.0289Z" fill="#35B0BF"/>
<path d="M19.0937 35.158C20.3084 35.158 21.2967 34.1697 21.2967 32.955C21.2967 31.7402 20.3084 30.752 19.0937 30.752C17.8789 30.752 16.8906 31.7402 16.8906 32.955C16.8906 34.1697 17.8789 35.158 19.0937 35.158ZM19.0937 31.924C19.6623 31.924 20.1247 32.3867 20.1247 32.955C20.1247 33.5236 19.6623 33.986 19.0937 33.986C18.5254 33.986 18.0626 33.5236 18.0626 32.955C18.0626 32.3867 18.5254 31.924 19.0937 31.924Z" fill="#35B0BF"/>
</svg>
