<?xml version="1.0" encoding="UTF-8"?>
<svg xmlns="http://www.w3.org/2000/svg" width="26" height="25" viewBox="0 0 26 25" fill="none">
  <g clip-path="url(#clip0_420_859)">
    <path d="M23.1118 3.22581H16.9969L17.265 2.68911C17.3028 2.61341 17.3158 2.52773 17.3022 2.44422C17.2886 2.36071 17.2491 2.28359 17.1892 2.22379L16.0493 1.08347C15.9895 1.02367 15.9123 0.984219 15.8288 0.970687C15.7453 0.957155 15.6596 0.970231 15.584 1.00806L14.8731 1.36371C14.6156 1.22849 14.3464 1.11701 14.0687 1.03065L13.817 0.27621C13.7904 0.195809 13.739 0.125856 13.6703 0.0762755C13.6017 0.0266954 13.5191 7.77753e-06 13.4344 1.16974e-08H11.8215C11.7368 -2.03752e-05 11.6543 0.0266085 11.5856 0.0761119C11.5169 0.125615 11.4656 0.195482 11.4388 0.275806L11.1872 1.03024C10.9088 1.11649 10.6389 1.22797 10.3808 1.36331L9.67188 1.00806C9.59617 0.970281 9.5105 0.957271 9.42699 0.970876C9.34348 0.984481 9.26636 1.02401 9.20656 1.08387L8.06624 2.22379C8.00644 2.28364 7.96699 2.36078 7.95345 2.44429C7.93992 2.52779 7.953 2.61345 7.99083 2.68911L8.25898 3.22581H2.14406C1.60954 3.22645 1.09711 3.43907 0.719147 3.81702C0.341189 4.19498 0.12857 4.70742 0.12793 5.24194V19.7581C0.12857 20.2926 0.341189 20.805 0.719147 21.183C1.09711 21.5609 1.60954 21.7736 2.14406 21.7742H9.7247L7.4872 24.3315C7.43634 24.3897 7.40327 24.4613 7.39196 24.5377C7.38064 24.6142 7.39154 24.6923 7.42337 24.7628C7.45519 24.8332 7.5066 24.893 7.57146 24.9351C7.63633 24.9772 7.71192 24.9997 7.78922 25H17.4666C17.544 24.9999 17.6198 24.9776 17.6848 24.9356C17.7499 24.8936 17.8015 24.8338 17.8334 24.7633C17.8654 24.6928 17.8764 24.6146 17.8652 24.538C17.8539 24.4615 17.8208 24.3897 17.7699 24.3315L15.5312 21.7742H23.1118C23.6463 21.7736 24.1588 21.5609 24.5367 21.183C24.9147 20.805 25.1273 20.2926 25.1279 19.7581V5.24194C25.1273 4.70742 24.9147 4.19498 24.5367 3.81702C24.1588 3.43907 23.6463 3.22645 23.1118 3.22581ZM8.73196 4.62218C8.82457 4.26873 8.96498 3.92958 9.1493 3.61411C9.1832 3.55625 9.20214 3.49084 9.20439 3.42381C9.20665 3.35678 9.19215 3.29025 9.1622 3.23024L8.83962 2.58911L9.57108 1.85887L10.2122 2.18145C10.2722 2.21139 10.3387 2.2259 10.4058 2.22364C10.4728 2.22139 10.5382 2.20245 10.5961 2.16855C10.9115 1.98415 11.2506 1.84387 11.6041 1.75161C11.6694 1.7349 11.7294 1.70213 11.7787 1.65627C11.828 1.61042 11.865 1.55295 11.8864 1.48911L12.1122 0.806452H13.1437L13.3707 1.4871C13.3921 1.55094 13.4291 1.60841 13.4784 1.65426C13.5277 1.70011 13.5877 1.73289 13.6529 1.7496C14.0064 1.84185 14.3456 1.98214 14.661 2.16653C14.7189 2.20044 14.7843 2.21937 14.8513 2.22163C14.9183 2.22388 14.9849 2.20938 15.0449 2.17944L15.686 1.85887L16.4142 2.58831L16.0916 3.22944C16.0617 3.28945 16.0472 3.35598 16.0494 3.42301C16.0517 3.49003 16.0706 3.55544 16.1045 3.61331C16.2889 3.92878 16.4293 4.26793 16.5219 4.62137C16.5386 4.68659 16.5714 4.74659 16.6172 4.7959C16.6631 4.8452 16.7205 4.88224 16.7844 4.90363L17.4666 5.12944V6.16089L16.7864 6.3879C16.7226 6.40929 16.6651 6.44633 16.6192 6.49564C16.5734 6.54494 16.5406 6.60494 16.5239 6.67016C16.4313 7.0236 16.2909 7.36275 16.1066 7.67823C16.0727 7.73609 16.0537 7.8015 16.0515 7.86853C16.0492 7.93555 16.0637 8.00209 16.0937 8.0621L16.4162 8.70323L15.6848 9.43145L15.0437 9.10887C14.9837 9.07871 14.9171 9.06409 14.8501 9.06635C14.783 9.0686 14.7176 9.08766 14.6598 9.12177C14.3444 9.30617 14.0052 9.44645 13.6517 9.53871C13.5865 9.55542 13.5265 9.5882 13.4772 9.63405C13.4279 9.6799 13.3909 9.73737 13.3695 9.80121L13.1437 10.4839H12.1122L11.8852 9.80323C11.8638 9.73939 11.8268 9.68192 11.7775 9.63606C11.7282 9.59021 11.6682 9.55744 11.6029 9.54073C11.2494 9.44847 10.9103 9.30818 10.5949 9.12379C10.5371 9.08968 10.4716 9.07062 10.4046 9.06836C10.3375 9.06611 10.2709 9.08073 10.211 9.11089L9.56987 9.43347L8.84164 8.70202L9.16422 8.06089C9.19416 8.00088 9.20866 7.93434 9.20641 7.86732C9.20416 7.80029 9.18522 7.73488 9.15132 7.67702C8.96699 7.36155 8.82658 7.02239 8.73398 6.66895C8.71727 6.60373 8.68449 6.54373 8.63864 6.49443C8.59279 6.44512 8.53532 6.40809 8.47148 6.38669L7.78922 6.16089V5.12944L8.46946 4.90242C8.53307 4.88121 8.59038 4.84448 8.63621 4.79555C8.68204 4.74662 8.71496 4.68703 8.73196 4.62218ZM17.9973 6.83387C18.0775 6.80714 18.1474 6.75584 18.1969 6.68724C18.2464 6.61864 18.273 6.53621 18.2731 6.45161V5.64516H22.3053C22.4123 5.64516 22.5149 5.68764 22.5905 5.76326C22.6661 5.83888 22.7086 5.94144 22.7086 6.04839V17.3387C22.7086 17.4457 22.6661 17.5482 22.5905 17.6238C22.5149 17.6995 22.4123 17.7419 22.3053 17.7419H2.95051C2.84357 17.7419 2.74101 17.6995 2.66539 17.6238C2.58977 17.5482 2.54728 17.4457 2.54728 17.3387V6.04839C2.54728 5.94144 2.58977 5.83888 2.66539 5.76326C2.74101 5.68764 2.84357 5.64516 2.95051 5.64516H6.98277V6.45161C6.98283 6.53621 7.0095 6.61864 7.059 6.68724C7.1085 6.75584 7.17832 6.80714 7.25857 6.83387L8.01301 7.08548C8.03116 7.14395 8.05333 7.2004 8.07551 7.25806H4.56341C4.45647 7.25806 4.35391 7.30055 4.27829 7.37617C4.20267 7.45179 4.16019 7.55435 4.16019 7.66129V9.75161C3.89115 9.84673 3.6644 10.0339 3.52001 10.28C3.37563 10.5262 3.3229 10.8154 3.37116 11.0967C3.41941 11.3779 3.56554 11.633 3.78371 11.817C4.00188 12.0009 4.27806 12.1018 4.56341 12.1018C4.84877 12.1018 5.12494 12.0009 5.34311 11.817C5.56129 11.633 5.70742 11.3779 5.75567 11.0967C5.80392 10.8154 5.7512 10.5262 5.60681 10.28C5.46243 10.0339 5.23568 9.84673 4.96664 9.75161V8.06452H8.25898L7.99083 8.60121C7.95305 8.67692 7.94004 8.76259 7.95364 8.8461C7.96725 8.92962 8.00678 9.00673 8.06664 9.06653L8.59567 9.59677V11.1238L7.90736 11.8121C7.83184 11.8876 7.78935 11.99 7.78922 12.0968V13.3806C7.52018 13.4758 7.29343 13.6629 7.14905 13.9091C7.00466 14.1552 6.95194 14.4445 7.00019 14.7257C7.04844 15.0069 7.19457 15.2621 7.41274 15.446C7.63092 15.6299 7.90709 15.7308 8.19245 15.7308C8.4778 15.7308 8.75397 15.6299 8.97215 15.446C9.19032 15.2621 9.33645 15.0069 9.3847 14.7257C9.43296 14.4445 9.38023 14.1552 9.23585 13.9091C9.09146 13.6629 8.86471 13.4758 8.59567 13.3806V12.2637L9.28398 11.5754C9.3596 11.4998 9.4021 11.3973 9.40212 11.2903V10.3121C9.49271 10.3343 9.58821 10.3238 9.67188 10.2827L10.3828 9.92702C10.6409 10.0623 10.9108 10.1738 11.1892 10.2601L11.4408 11.0145C11.4675 11.0945 11.5185 11.1641 11.5868 11.2136C11.6551 11.2631 11.7372 11.2899 11.8215 11.2903H12.2247V12.5742C11.9557 12.6693 11.7289 12.8565 11.5845 13.1026C11.4401 13.3487 11.3874 13.638 11.4357 13.9192C11.4839 14.2005 11.6301 14.4556 11.8482 14.6396C12.0664 14.8235 12.3426 14.9244 12.6279 14.9244C12.9133 14.9244 13.1895 14.8235 13.4076 14.6396C13.6258 14.4556 13.7719 14.2005 13.8202 13.9192C13.8684 13.638 13.8157 13.3487 13.6713 13.1026C13.5269 12.8565 13.3002 12.6693 13.0312 12.5742V11.2903H13.4344C13.519 11.2903 13.6016 11.2637 13.6702 11.2142C13.7389 11.1647 13.7903 11.0948 13.817 11.0145L14.0687 10.2601C14.3464 10.1737 14.6156 10.0622 14.8731 9.92702L15.584 10.2827C15.6677 10.3237 15.7631 10.3343 15.8537 10.3125V11.2903C15.8538 11.3973 15.8963 11.4998 15.9719 11.5754L16.6602 12.2637V13.3806C16.3911 13.4758 16.1644 13.6629 16.02 13.9091C15.8756 14.1552 15.8229 14.4445 15.8712 14.7257C15.9194 15.0069 16.0655 15.2621 16.2837 15.446C16.5019 15.6299 16.7781 15.7308 17.0634 15.7308C17.3488 15.7308 17.6249 15.6299 17.8431 15.446C18.0613 15.2621 18.2074 15.0069 18.2557 14.7257C18.3039 14.4445 18.2512 14.1552 18.1068 13.9091C17.9624 13.6629 17.7357 13.4758 17.4666 13.3806V12.0968C17.4666 11.9898 17.4241 11.8873 17.3485 11.8117L16.6602 11.1234V9.59677L17.1896 9.06694C17.2495 9.00713 17.289 8.93002 17.3026 8.84651C17.3162 8.763 17.3032 8.67732 17.2654 8.60161L16.9969 8.06452H20.2892V9.75161C20.0202 9.84673 19.7934 10.0339 19.649 10.28C19.5047 10.5262 19.4519 10.8154 19.5002 11.0967C19.5484 11.3779 19.6946 11.633 19.9127 11.817C20.1309 12.0009 20.4071 12.1018 20.6924 12.1018C20.9778 12.1018 21.254 12.0009 21.4721 11.817C21.6903 11.633 21.8364 11.3779 21.8847 11.0967C21.933 10.8154 21.8802 10.5262 21.7358 10.28C21.5915 10.0339 21.3647 9.84673 21.0957 9.75161V7.66129C21.0957 7.55435 21.0532 7.45179 20.9776 7.37617C20.902 7.30055 20.7994 7.25806 20.6924 7.25806H17.1803C17.2009 7.2004 17.2247 7.14395 17.2428 7.08548L17.9973 6.83387ZM4.96664 10.8871C4.96664 10.9668 4.94299 11.0448 4.89868 11.1111C4.85438 11.1774 4.7914 11.2291 4.71772 11.2596C4.64404 11.2901 4.56297 11.2981 4.48475 11.2826C4.40653 11.267 4.33468 11.2286 4.27829 11.1722C4.2219 11.1158 4.18349 11.044 4.16794 10.9658C4.15238 10.8875 4.16036 10.8065 4.19088 10.7328C4.2214 10.6591 4.27308 10.5961 4.33939 10.5518C4.4057 10.5075 4.48366 10.4839 4.56341 10.4839C4.67036 10.4839 4.77292 10.5264 4.84854 10.602C4.92416 10.6776 4.96664 10.7802 4.96664 10.8871ZM8.59567 14.5161C8.59567 14.5959 8.57202 14.6738 8.52772 14.7401C8.48341 14.8065 8.42043 14.8581 8.34675 14.8887C8.27307 14.9192 8.192 14.9272 8.11378 14.9116C8.03556 14.896 7.96371 14.8576 7.90732 14.8013C7.85093 14.7449 7.81253 14.673 7.79697 14.5948C7.78141 14.5166 7.78939 14.4355 7.81991 14.3618C7.85043 14.2881 7.90212 14.2252 7.96843 14.1809C8.03474 14.1366 8.1127 14.1129 8.19245 14.1129C8.29939 14.1129 8.40195 14.1554 8.47757 14.231C8.55319 14.3066 8.59567 14.4092 8.59567 14.5161ZM13.0312 13.7097C13.0312 13.7894 13.0075 13.8674 12.9632 13.9337C12.9189 14 12.8559 14.0517 12.7822 14.0822C12.7086 14.1127 12.6275 14.1207 12.5493 14.1052C12.471 14.0896 12.3992 14.0512 12.3428 13.9948C12.2864 13.9384 12.248 13.8666 12.2325 13.7883C12.2169 13.7101 12.2249 13.6291 12.2554 13.5554C12.2859 13.4817 12.3376 13.4187 12.4039 13.3744C12.4702 13.3301 12.5482 13.3065 12.6279 13.3065C12.7349 13.3065 12.8374 13.3489 12.9131 13.4246C12.9887 13.5002 13.0312 13.6027 13.0312 13.7097ZM17.4666 14.5161C17.4666 14.5959 17.443 14.6738 17.3987 14.7401C17.3544 14.8065 17.2914 14.8581 17.2177 14.8887C17.144 14.9192 17.063 14.9272 16.9847 14.9116C16.9065 14.896 16.8347 14.8576 16.7783 14.8013C16.7219 14.7449 16.6835 14.673 16.6679 14.5948C16.6524 14.5166 16.6604 14.4355 16.6909 14.3618C16.7214 14.2881 16.7731 14.2252 16.8394 14.1809C16.9057 14.1366 16.9837 14.1129 17.0634 14.1129C17.1704 14.1129 17.2729 14.1554 17.3485 14.231C17.4242 14.3066 17.4666 14.4092 17.4666 14.5161ZM21.0957 10.8871C21.0957 10.9668 21.072 11.0448 21.0277 11.1111C20.9834 11.1774 20.9204 11.2291 20.8468 11.2596C20.7731 11.2901 20.692 11.2981 20.6138 11.2826C20.5356 11.267 20.4637 11.2286 20.4073 11.1722C20.3509 11.1158 20.3125 11.044 20.297 10.9658C20.2814 10.8875 20.2894 10.8065 20.3199 10.7328C20.3504 10.6591 20.4021 10.5961 20.4684 10.5518C20.5347 10.5075 20.6127 10.4839 20.6924 10.4839C20.7994 10.4839 20.902 10.5264 20.9776 10.602C21.0532 10.6776 21.0957 10.7802 21.0957 10.8871ZM16.5795 24.1935H8.67632L10.7928 21.7742H14.4598L16.5795 24.1935ZM24.3215 19.7581C24.3215 20.0789 24.194 20.3866 23.9672 20.6134C23.7403 20.8403 23.4326 20.9677 23.1118 20.9677H2.14406C1.82323 20.9677 1.51555 20.8403 1.28869 20.6134C1.06183 20.3866 0.934381 20.0789 0.934381 19.7581V5.24194C0.934381 4.92111 1.06183 4.61342 1.28869 4.38656C1.51555 4.15971 1.82323 4.03226 2.14406 4.03226H8.07551C8.05495 4.08992 8.03116 4.14637 8.01301 4.20484L7.25857 4.45645C7.17832 4.48318 7.1085 4.53448 7.059 4.60308C7.0095 4.67168 6.98283 4.75412 6.98277 4.83871H2.95051C2.62968 4.83871 2.322 4.96616 2.09514 5.19302C1.86828 5.41987 1.74083 5.72756 1.74083 6.04839V17.3387C1.74083 17.6595 1.86828 17.9672 2.09514 18.1941C2.322 18.4209 2.62968 18.5484 2.95051 18.5484H22.3053C22.6262 18.5484 22.9339 18.4209 23.1607 18.1941C23.3876 17.9672 23.515 17.6595 23.515 17.3387V6.04839C23.515 5.72756 23.3876 5.41987 23.1607 5.19302C22.9339 4.96616 22.6262 4.83871 22.3053 4.83871H18.2731C18.273 4.75412 18.2464 4.67168 18.1969 4.60308C18.1474 4.53448 18.0775 4.48318 17.9973 4.45645L17.2428 4.20484C17.2247 4.14637 17.2025 4.08992 17.1803 4.03226H23.1118C23.4326 4.03226 23.7403 4.15971 23.9672 4.38656C24.194 4.61342 24.3215 4.92111 24.3215 5.24194V19.7581Z" fill="#6471D7"></path>
    <path d="M13.0311 19.3549H12.2246V20.1613H13.0311V19.3549Z" fill="#6471D7"></path>
    <path d="M12.6282 8.46779C13.1865 8.46779 13.7322 8.30225 14.1964 7.9921C14.6606 7.68195 15.0223 7.24113 15.236 6.72537C15.4496 6.20961 15.5055 5.64208 15.3966 5.09456C15.2877 4.54703 15.0189 4.04409 14.6241 3.64935C14.2294 3.2546 13.7264 2.98578 13.1789 2.87687C12.6314 2.76796 12.0638 2.82385 11.5481 3.03749C11.0323 3.25112 10.5915 3.6129 10.2814 4.07707C9.97121 4.54124 9.80566 5.08696 9.80566 5.64521C9.80652 6.39355 10.1042 7.11098 10.6333 7.64014C11.1625 8.16929 11.8799 8.46694 12.6282 8.46779ZM12.6282 3.62908C13.027 3.62908 13.4168 3.74733 13.7483 3.96886C14.0799 4.1904 14.3383 4.50528 14.4909 4.87367C14.6435 5.24207 14.6834 5.64745 14.6056 6.03854C14.5278 6.42963 14.3358 6.78887 14.0539 7.07083C13.7719 7.35279 13.4127 7.54481 13.0216 7.6226C12.6305 7.7004 12.2251 7.66047 11.8567 7.50787C11.4883 7.35528 11.1734 7.09687 10.9519 6.76531C10.7304 6.43376 10.6121 6.04397 10.6121 5.64521C10.6128 5.1107 10.8254 4.59826 11.2033 4.2203C11.5813 3.84234 12.0937 3.62972 12.6282 3.62908Z" fill="#6471D7"></path>
  </g>
  <defs>
    <clipPath id="clip0_420_859">
      <rect width="25" height="25" fill="white" transform="translate(0.12793)"></rect>
    </clipPath>
  </defs>
</svg>
