<svg width="45" height="45" viewBox="0 0 45 45" fill="none" xmlns="http://www.w3.org/2000/svg">
<path d="M4.67188 7.67871H6.0086V9.01544H4.67188V7.67871Z" fill="#35B0BF"/>
<path d="M7.34766 7.67871H8.68438V9.01544H7.34766V7.67871Z" fill="#35B0BF"/>
<path d="M10.0195 7.67871H11.3563V9.01544H10.0195V7.67871Z" fill="#35B0BF"/>
<path d="M4.67345 37.0868H16.4582L16.0936 41.097H14.0305V42.4337H28.7345V41.097H26.6715L26.3069 37.0868H38.0916C38.8004 37.086 39.48 36.8041 39.9812 36.3029C40.4824 35.8017 40.7643 35.1222 40.7651 34.4134V19.7094H39.4284V30.4032H3.33673V11.689H20.7142V10.3523H3.33673V7.67882C3.33715 7.32443 3.47812 6.98467 3.72871 6.73408C3.9793 6.48349 4.31906 6.34252 4.67345 6.3421H25.3927V5.00537H4.67345C3.96465 5.00617 3.28511 5.28809 2.78392 5.78929C2.28272 6.29048 2.0008 6.97003 2 7.67882V34.4134C2.0008 35.1222 2.28272 35.8017 2.78392 36.3029C3.28511 36.8041 3.96465 37.086 4.67345 37.0868V37.0868ZM25.3292 41.097H17.4359L17.8004 37.0868H24.9646L25.3292 41.097ZM39.4284 31.7399V34.4134C39.4279 34.7678 39.287 35.1075 39.0364 35.3581C38.7858 35.6087 38.446 35.7497 38.0916 35.7501H4.67345C4.31906 35.7497 3.9793 35.6087 3.72871 35.3581C3.47812 35.1075 3.33715 34.7678 3.33673 34.4134V31.7399H39.4284Z" fill="#35B0BF"/>
<path d="M20.7148 33.0762H22.0516V34.4129H20.7148V33.0762Z" fill="#35B0BF"/>
<path d="M32.0727 17.0355C32.8658 17.0355 33.6411 16.8003 34.3006 16.3597C34.9601 15.919 35.4741 15.2927 35.7776 14.5599C36.0811 13.8272 36.1605 13.0209 36.0058 12.243C35.8511 11.4651 35.4691 10.7505 34.9083 10.1897C34.3475 9.62886 33.6329 9.24693 32.855 9.09219C32.0771 8.93746 31.2708 9.01687 30.5381 9.3204C29.8053 9.62392 29.179 10.1379 28.7383 10.7974C28.2977 11.4569 28.0625 12.2322 28.0625 13.0253C28.0637 14.0885 28.4866 15.1078 29.2384 15.8596C29.9902 16.6114 31.0095 17.0343 32.0727 17.0355ZM32.0727 10.3519C32.6014 10.3519 33.1183 10.5087 33.558 10.8024C33.9976 11.0962 34.3403 11.5137 34.5426 12.0022C34.745 12.4907 34.7979 13.0283 34.6948 13.5469C34.5916 14.0655 34.337 14.5418 33.9631 14.9157C33.5892 15.2896 33.1128 15.5442 32.5942 15.6474C32.0756 15.7506 31.5381 15.6976 31.0496 15.4953C30.5611 15.2929 30.1435 14.9503 29.8498 14.5106C29.556 14.071 29.3992 13.5541 29.3992 13.0253C29.4 12.3165 29.6819 11.637 30.1831 11.1358C30.6843 10.6346 31.3639 10.3527 32.0727 10.3519V10.3519Z" fill="#35B0BF"/>
<path d="M23.6514 7.58398C23.5136 7.57684 23.3769 7.61259 23.2602 7.68632C23.1435 7.76005 23.0525 7.86813 22.9998 7.99569L22.1017 10.164C22.0488 10.2915 22.0368 10.4323 22.0672 10.5669C22.0975 10.7015 22.1688 10.8235 22.2713 10.9159L23.9129 12.398V13.6529L22.2713 15.135C22.1688 15.2275 22.0975 15.3494 22.0672 15.484C22.0368 15.6187 22.0488 15.7594 22.1017 15.8869L22.9998 18.0552C23.0526 18.1827 23.1436 18.2908 23.2603 18.3645C23.377 18.4382 23.5136 18.474 23.6514 18.4669L25.8603 18.3542L26.7475 19.2414L26.6348 21.4503C26.6277 21.5881 26.6635 21.7247 26.7372 21.8414C26.8109 21.9581 26.919 22.0491 27.0465 22.1019L29.2148 23C29.3423 23.0529 29.483 23.0649 29.6177 23.0345C29.7523 23.0042 29.8742 22.9329 29.9667 22.8304L31.4488 21.1888H32.7037L34.1858 22.8304C34.2783 22.9329 34.4002 23.0042 34.5348 23.0345C34.6694 23.0649 34.8102 23.0529 34.9377 23L37.106 22.1019C37.2335 22.0491 37.3416 21.9581 37.4153 21.8414C37.489 21.7247 37.5248 21.5881 37.5177 21.4503L37.4049 19.2414L38.2922 18.3542L40.5011 18.4669C40.6389 18.4742 40.7757 18.4386 40.8924 18.3648C41.0091 18.2911 41.1001 18.1829 41.1527 18.0552L42.0508 15.8869C42.1036 15.7594 42.1157 15.6187 42.0853 15.484C42.055 15.3494 41.9837 15.2275 41.8812 15.135L40.2396 13.6529V12.398L41.8812 10.9159C41.9837 10.8235 42.055 10.7015 42.0853 10.5669C42.1157 10.4323 42.1036 10.2915 42.0508 10.164L41.1527 7.99603C41.0999 7.86852 41.0089 7.76049 40.8922 7.68677C40.7755 7.61305 40.6389 7.57726 40.5011 7.58432L38.292 7.69677L37.4049 6.80968L37.5177 4.60083C37.5248 4.46299 37.489 4.32635 37.4153 4.20967C37.3416 4.09299 37.2335 4.00199 37.106 3.94917L34.9377 3.05089C34.8102 2.99807 34.6694 2.98601 34.5348 3.01638C34.4002 3.04675 34.2783 3.11805 34.1858 3.22049L32.7037 4.86216H31.4488L29.9667 3.22049C29.8742 3.11805 29.7523 3.04675 29.6177 3.01638C29.483 2.98601 29.3423 2.99807 29.2148 3.05089L27.0468 3.949C26.9193 4.00182 26.8113 4.09282 26.7375 4.2095C26.6638 4.32618 26.628 4.46282 26.6351 4.60066L26.7479 6.80952L25.8605 7.69677L23.6514 7.58398ZM26.5957 8.85204L27.9028 7.54488C27.9689 7.47876 28.0205 7.3995 28.054 7.31221C28.0876 7.22493 28.1025 7.13158 28.0977 7.03818L27.9938 5.00377L29.2906 4.46665L30.656 5.97841C30.7186 6.04782 30.7952 6.1033 30.8806 6.14128C30.9661 6.17926 31.0586 6.19888 31.1521 6.19888H33.0009C33.0944 6.19881 33.1867 6.17916 33.2721 6.14118C33.3575 6.1032 33.4339 6.04775 33.4965 5.97841L34.8617 4.46623L36.1584 5.00335L36.0545 7.03776C36.0497 7.13116 36.0646 7.22451 36.0982 7.3118C36.1318 7.39908 36.1833 7.47834 36.2494 7.54447L37.5568 8.85204C37.623 8.91811 37.7023 8.9696 37.7895 9.00317C37.8768 9.03674 37.9701 9.05165 38.0635 9.04695L40.0979 8.94302L40.6351 10.2398L39.1233 11.6052C39.0539 11.6679 38.9984 11.7444 38.9604 11.8298C38.9224 11.9153 38.9028 12.0078 38.9028 12.1013V13.9501C38.9029 14.0436 38.9226 14.1359 38.9605 14.2213C38.9985 14.3067 39.054 14.3831 39.1233 14.4457L40.6355 15.8109L40.0984 17.1077L38.0639 17.0037C37.9705 16.9989 37.8772 17.0138 37.7899 17.0474C37.7026 17.0809 37.6233 17.1325 37.5572 17.1986L36.2497 18.506C36.1835 18.5722 36.132 18.6514 36.0985 18.7387C36.0649 18.826 36.05 18.9194 36.0548 19.0127L36.1587 21.0472L34.8619 21.5843L33.4965 20.0725C33.4339 20.0031 33.3573 19.9476 33.2719 19.9096C33.1864 19.8717 33.0939 19.852 33.0004 19.852H31.1516C31.0581 19.8521 30.9658 19.8718 30.8804 19.9097C30.795 19.9477 30.7186 20.0032 30.656 20.0725L29.2908 21.5847L27.994 21.0476L28.098 19.0132C28.1027 18.9198 28.0879 18.8264 28.0543 18.7391C28.0207 18.6518 27.9692 18.5726 27.9031 18.5065L26.5957 17.1989C26.5295 17.1328 26.4502 17.0814 26.363 17.0478C26.2757 17.0142 26.1823 16.9993 26.089 17.004L24.0545 17.1079L23.5174 15.8111L25.0292 14.4457C25.0986 14.3831 25.1541 14.3065 25.1921 14.2211C25.23 14.1356 25.2497 14.0432 25.2497 13.9496V12.1008C25.2496 12.0074 25.2299 11.915 25.192 11.8296C25.154 11.7443 25.0985 11.6678 25.0292 11.6052L23.517 10.2401L24.0541 8.94327L26.0885 9.0472C26.182 9.05197 26.2755 9.03706 26.3628 9.00344C26.4502 8.96982 26.5295 8.91824 26.5957 8.85204V8.85204Z" fill="#35B0BF"/>
<path d="M9.35002 14.3622C9.35002 14.185 9.27961 14.0149 9.15426 13.8896C9.02892 13.7643 8.85892 13.6938 8.68166 13.6938H6.00821C5.83095 13.6938 5.66095 13.7643 5.5356 13.8896C5.41026 14.0149 5.33984 14.185 5.33984 14.3622V17.0357C5.33984 17.2129 5.41026 17.3829 5.5356 17.5083C5.66095 17.6336 5.83095 17.704 6.00821 17.704H8.68166C8.85892 17.704 9.02892 17.6336 9.15426 17.5083C9.27961 17.3829 9.35002 17.2129 9.35002 17.0357V14.3622ZM8.0133 16.3673H6.67657V15.0306H8.0133V16.3673Z" fill="#35B0BF"/>
<path d="M14.6977 14.3622C14.6977 14.185 14.6273 14.0149 14.5019 13.8896C14.3766 13.7643 14.2066 13.6938 14.0293 13.6938H11.3559C11.1786 13.6938 11.0086 13.7643 10.8833 13.8896C10.7579 14.0149 10.6875 14.185 10.6875 14.3622V17.0357C10.6875 17.2129 10.7579 17.3829 10.8833 17.5083C11.0086 17.6336 11.1786 17.704 11.3559 17.704H14.0293C14.2066 17.704 14.3766 17.6336 14.5019 17.5083C14.6273 17.3829 14.6977 17.2129 14.6977 17.0357V14.3622ZM13.361 16.3673H12.0242V15.0306H13.361V16.3673Z" fill="#35B0BF"/>
<path d="M20.0492 14.3622C20.0492 14.185 19.9788 14.0149 19.8535 13.8896C19.7281 13.7643 19.5581 13.6938 19.3809 13.6938H16.7074C16.5302 13.6938 16.3602 13.7643 16.2348 13.8896C16.1095 14.0149 16.0391 14.185 16.0391 14.3622V17.0357C16.0391 17.2129 16.1095 17.3829 16.2348 17.5083C16.3602 17.6336 16.5302 17.704 16.7074 17.704H19.3809C19.5581 17.704 19.7281 17.6336 19.8535 17.5083C19.9788 17.3829 20.0492 17.2129 20.0492 17.0357V14.3622ZM18.7125 16.3673H17.3758V15.0306H18.7125V16.3673Z" fill="#35B0BF"/>
<path d="M9.35002 19.7094C9.35002 19.5321 9.27961 19.3621 9.15426 19.2368C9.02892 19.1114 8.85892 19.041 8.68166 19.041H6.00821C5.83095 19.041 5.66095 19.1114 5.5356 19.2368C5.41026 19.3621 5.33984 19.5321 5.33984 19.7094V22.3828C5.33984 22.5601 5.41026 22.7301 5.5356 22.8554C5.66095 22.9808 5.83095 23.0512 6.00821 23.0512H8.68166C8.85892 23.0512 9.02892 22.9808 9.15426 22.8554C9.27961 22.7301 9.35002 22.5601 9.35002 22.3828V19.7094ZM8.0133 21.7145H6.67657V20.3777H8.0133V21.7145Z" fill="#35B0BF"/>
<path d="M14.6977 19.7094C14.6977 19.5321 14.6273 19.3621 14.5019 19.2368C14.3766 19.1114 14.2066 19.041 14.0293 19.041H11.3559C11.1786 19.041 11.0086 19.1114 10.8833 19.2368C10.7579 19.3621 10.6875 19.5321 10.6875 19.7094V22.3828C10.6875 22.5601 10.7579 22.7301 10.8833 22.8554C11.0086 22.9808 11.1786 23.0512 11.3559 23.0512H14.0293C14.2066 23.0512 14.3766 22.9808 14.5019 22.8554C14.6273 22.7301 14.6977 22.5601 14.6977 22.3828V19.7094ZM13.361 21.7145H12.0242V20.3777H13.361V21.7145Z" fill="#35B0BF"/>
<path d="M20.0492 19.7094C20.0492 19.5321 19.9788 19.3621 19.8535 19.2368C19.7281 19.1114 19.5581 19.041 19.3809 19.041H16.7074C16.5302 19.041 16.3602 19.1114 16.2348 19.2368C16.1095 19.3621 16.0391 19.5321 16.0391 19.7094V22.3828C16.0391 22.5601 16.1095 22.7301 16.2348 22.8554C16.3602 22.9808 16.5302 23.0512 16.7074 23.0512H19.3809C19.5581 23.0512 19.7281 22.9808 19.8535 22.8554C19.9788 22.7301 20.0492 22.5601 20.0492 22.3828V19.7094ZM18.7125 21.7145H17.3758V20.3777H18.7125V21.7145Z" fill="#35B0BF"/>
<path d="M8.68166 24.3877H6.00821C5.83095 24.3877 5.66095 24.4581 5.5356 24.5835C5.41026 24.7088 5.33984 24.8788 5.33984 25.0561V27.7295C5.33984 27.9068 5.41026 28.0768 5.5356 28.2021C5.66095 28.3275 5.83095 28.3979 6.00821 28.3979H8.68166C8.85892 28.3979 9.02892 28.3275 9.15426 28.2021C9.27961 28.0768 9.35002 27.9068 9.35002 27.7295V25.0561C9.35002 24.8788 9.27961 24.7088 9.15426 24.5835C9.02892 24.4581 8.85892 24.3877 8.68166 24.3877ZM8.0133 27.0611H6.67657V25.7244H8.0133V27.0611Z" fill="#35B0BF"/>
<path d="M14.0293 24.3877H11.3559C11.1786 24.3877 11.0086 24.4581 10.8833 24.5835C10.7579 24.7088 10.6875 24.8788 10.6875 25.0561V27.7295C10.6875 27.9068 10.7579 28.0768 10.8833 28.2021C11.0086 28.3275 11.1786 28.3979 11.3559 28.3979H14.0293C14.2066 28.3979 14.3766 28.3275 14.5019 28.2021C14.6273 28.0768 14.6977 27.9068 14.6977 27.7295V25.0561C14.6977 24.8788 14.6273 24.7088 14.5019 24.5835C14.3766 24.4581 14.2066 24.3877 14.0293 24.3877ZM13.361 27.0611H12.0242V25.7244H13.361V27.0611Z" fill="#35B0BF"/>
<path d="M19.3809 24.3877H16.7074C16.5302 24.3877 16.3602 24.4581 16.2348 24.5835C16.1095 24.7088 16.0391 24.8788 16.0391 25.0561V27.7295C16.0391 27.9068 16.1095 28.0768 16.2348 28.2021C16.3602 28.3275 16.5302 28.3979 16.7074 28.3979H19.3809C19.5581 28.3979 19.7281 28.3275 19.8535 28.2021C19.9788 28.0768 20.0492 27.9068 20.0492 27.7295V25.0561C20.0492 24.8788 19.9788 24.7088 19.8535 24.5835C19.7281 24.4581 19.5581 24.3877 19.3809 24.3877ZM18.7125 27.0611H17.3758V25.7244H18.7125V27.0611Z" fill="#35B0BF"/>
<path d="M23.3867 24.3877H24.7234V25.7244H23.3867V24.3877Z" fill="#35B0BF"/>
<path d="M26.0625 24.3877H37.4247V25.7244H26.0625V24.3877Z" fill="#35B0BF"/>
<path d="M22.0508 27.061H34.7497V28.3978H22.0508V27.061Z" fill="#35B0BF"/>
</svg>
